<svg width="523" height="485" viewBox="0 0 523 485" fill="none" xmlns="http://www.w3.org/2000/svg">
<g filter="url(#filter0_d_32141_3132)">
<g clip-path="url(#clip0_32141_3132)">
<rect x="41.9707" y="9.31445" width="460" height="419.975" rx="20" transform="rotate(2 41.9707 9.31445)" fill="white" fill-opacity="0.8" shape-rendering="crispEdges"/>
<path d="M65.5846 50.6599L66.0306 37.8877L74.3416 38.1779L74.2794 39.9588L67.9113 39.7364L67.7812 43.4602L73.9335 43.675L73.8732 45.4019L67.7209 45.1871L67.5896 48.9468L74.1017 49.1742L74.0395 50.9551L65.5846 50.6599ZM79.1731 51.3505C78.2737 51.3191 77.517 51.1546 76.903 50.857C76.301 50.5598 75.8405 50.1655 75.5214 49.6741C75.2028 49.1706 75.0306 48.6003 75.0048 47.963L76.9688 47.9415C77.0463 48.4726 77.2595 48.9003 77.6084 49.2246C77.9573 49.549 78.4975 49.724 79.2291 49.7495C79.8287 49.7704 80.3057 49.691 80.6602 49.5113C81.0147 49.3316 81.1993 49.0318 81.214 48.6121C81.2219 48.3842 81.1687 48.1902 81.0542 48.0302C80.9521 47.8585 80.741 47.713 80.421 47.5938C80.1014 47.4626 79.6257 47.3319 78.9938 47.2017C78.0527 46.9888 77.3165 46.7529 76.7852 46.4942C76.2539 46.2355 75.8808 45.9163 75.6659 45.5366C75.451 45.1569 75.3528 44.7032 75.3712 44.1755C75.4018 43.3 75.7505 42.5978 76.4174 42.0687C77.0963 41.5401 78.0533 41.2973 79.2886 41.3405C80.1161 41.3694 80.8066 41.5376 81.3602 41.8451C81.9142 42.1406 82.3388 42.5336 82.6338 43.0242C82.9413 43.5033 83.1268 44.0381 83.1902 44.6286L81.2256 44.6681C81.1774 44.3302 81.0675 44.0382 80.896 43.7921C80.7369 43.5343 80.5157 43.3345 80.2325 43.1925C79.9497 43.0386 79.6104 42.9547 79.2147 42.9409C78.603 42.9195 78.1431 43.0235 77.8349 43.2529C77.5267 43.4823 77.3659 43.7889 77.3525 44.1726C77.3425 44.4604 77.4003 44.6966 77.5259 44.8811C77.6636 45.066 77.8862 45.2239 78.1938 45.3547C78.5018 45.4735 78.9122 45.5839 79.425 45.6859C80.4145 45.8885 81.1867 46.1256 81.7416 46.3972C82.2969 46.6567 82.6821 46.9703 82.8974 47.3381C83.1127 47.7058 83.2114 48.1475 83.1934 48.6632C83.1724 49.2628 82.9867 49.7667 82.6363 50.1747C82.2858 50.5827 81.8128 50.8904 81.2172 51.0977C80.622 51.2931 79.9407 51.3773 79.1731 51.3505ZM88.1726 51.6648C87.2731 51.6334 86.5164 51.4689 85.9024 51.1713C85.3004 50.8741 84.8399 50.4798 84.5209 49.9883C84.2022 49.4849 84.03 48.9146 84.0043 48.2773L85.9682 48.2558C86.0457 48.7868 86.2589 49.2145 86.6078 49.5389C86.9567 49.8633 87.4969 50.0382 88.2285 50.0638C88.8281 50.0847 89.3052 50.0053 89.6597 49.8256C90.0142 49.6458 90.1987 49.3461 90.2134 48.9264C90.2214 48.6985 90.1681 48.5045 90.0536 48.3444C89.9515 48.1728 89.7405 48.0273 89.4204 47.9081C89.1008 47.7768 88.6251 47.6461 87.9933 47.516C87.0521 47.303 86.3159 47.0672 85.7846 46.8085C85.2533 46.5498 84.8802 46.2306 84.6653 45.8509C84.4505 45.4711 84.3522 45.0174 84.3707 44.4897C84.4012 43.6143 84.75 42.912 85.4168 42.383C86.0957 41.8543 87.0527 41.6116 88.288 41.6547C89.1155 41.6836 89.806 41.8518 90.3596 42.1593C90.9137 42.4549 91.3382 42.8479 91.6333 43.3385C91.9407 43.8175 92.1262 44.3523 92.1896 44.9429L90.225 44.9824C90.1768 44.6445 90.0669 44.3525 89.8954 44.1063C89.7363 43.8486 89.5152 43.6488 89.2319 43.5068C88.9491 43.3528 88.6099 43.2689 88.2141 43.2551C87.6025 43.2338 87.1426 43.3378 86.8344 43.5672C86.5262 43.7965 86.3654 44.1031 86.352 44.4869C86.3419 44.7747 86.3997 45.0109 86.5254 45.1954C86.663 45.3803 86.8856 45.5382 87.1932 45.669C87.5013 45.7878 87.9117 45.8982 88.4244 46.0001C89.414 46.2028 90.1862 46.4399 90.741 46.7114C91.2963 46.971 91.6816 47.2846 91.8969 47.6523C92.1122 48.0201 92.2108 48.4618 92.1928 48.9775C92.1719 49.5771 91.9862 50.0809 91.6357 50.4889C91.2853 50.897 90.8122 51.2046 90.2166 51.412C89.6215 51.6073 88.9401 51.6916 88.1726 51.6648ZM96.3579 51.9506C95.3625 51.9159 94.5729 51.6602 93.9892 51.1835C93.4175 50.7073 93.1461 50.0554 93.175 49.2279C93.2039 48.4004 93.4721 47.7674 93.9797 47.3288C94.4997 46.8787 95.285 46.5699 96.3355 46.4025L99.6495 45.8878C99.6754 45.1443 99.5208 44.5865 99.1856 44.2146C98.8508 43.8307 98.3416 43.6268 97.658 43.6029C97.0464 43.5816 96.5618 43.7027 96.2044 43.9664C95.8474 44.2181 95.5937 44.6055 95.4434 45.1286L93.487 44.9342C93.7004 43.981 94.1705 43.241 94.8973 42.714C95.6362 42.1875 96.5752 41.9441 97.7145 41.9839C99.0097 42.0291 99.981 42.4113 100.628 43.1303C101.288 43.8378 101.596 44.8151 101.553 46.0623L101.422 49.7861C101.415 50.0139 101.445 50.1771 101.513 50.2755C101.594 50.3624 101.725 50.409 101.905 50.4153L102.247 50.4272L102.194 51.9383C102.133 51.9482 102.037 51.9568 101.905 51.9642C101.772 51.9716 101.634 51.9728 101.49 51.9678C101.083 51.9535 100.731 51.8752 100.436 51.7328C100.153 51.5909 99.9444 51.3674 99.811 51.0626C99.6779 50.7458 99.6204 50.3295 99.6384 49.8138L99.8332 49.9107C99.7226 50.3271 99.4997 50.6915 99.1646 51.004C98.8415 51.3169 98.4307 51.5607 97.9323 51.7355C97.4464 51.8986 96.9215 51.9703 96.3579 51.9506ZM96.7165 50.4502C97.2921 50.4703 97.7876 50.3796 98.2029 50.1779C98.6186 49.9643 98.9473 49.6636 99.1889 49.2758C99.4306 48.888 99.5603 48.4423 99.5779 47.9386L99.5992 47.3269L96.7741 47.7686C96.1947 47.8564 95.7808 48.0161 95.5326 48.2476C95.2968 48.4675 95.1726 48.7573 95.16 49.1171C95.1458 49.5249 95.2726 49.8475 95.5405 50.085C95.8208 50.3109 96.2128 50.4326 96.7165 50.4502ZM111.945 52.567C110.925 52.5314 110.044 52.3145 109.302 51.9163C108.571 51.5186 108.001 50.9824 107.593 50.3077C107.184 49.6331 106.959 48.8567 106.918 47.9787L108.919 47.9226C108.982 48.5251 109.138 49.0409 109.387 49.4698C109.637 49.8868 109.98 50.211 110.416 50.4423C110.864 50.6621 111.406 50.7831 112.042 50.8053C112.594 50.8246 113.064 50.7749 113.452 50.6564C113.853 50.5263 114.16 50.3269 114.374 50.0582C114.587 49.7895 114.701 49.4573 114.715 49.0615C114.727 48.7017 114.648 48.3808 114.478 48.0987C114.32 47.805 113.999 47.5356 113.516 47.2906C113.044 47.034 112.345 46.7754 111.417 46.5149C110.407 46.2275 109.601 45.9231 109 45.602C108.399 45.2808 107.968 44.8935 107.708 44.4402C107.46 43.9752 107.347 43.413 107.37 42.7534C107.396 42.0218 107.592 41.3863 107.959 40.8468C108.339 40.2957 108.864 39.8757 109.534 39.5869C110.205 39.2982 111.002 39.1699 111.925 39.2022C112.896 39.2361 113.718 39.4449 114.389 39.8285C115.072 40.2126 115.6 40.7233 115.974 41.3608C116.36 41.9986 116.587 42.721 116.655 43.5279L114.654 43.5661C114.612 43.0723 114.477 42.6353 114.25 42.2551C114.023 41.863 113.71 41.5579 113.309 41.3398C112.909 41.1097 112.415 40.9843 111.827 40.9638C111.084 40.9379 110.49 41.0912 110.046 41.4239C109.615 41.7451 109.389 42.1875 109.37 42.7511C109.357 43.1109 109.43 43.4197 109.589 43.6774C109.761 43.9235 110.065 44.1443 110.503 44.3397C110.952 44.5355 111.587 44.7497 112.408 44.9825C113.502 45.2729 114.367 45.6153 115.001 46.0097C115.648 46.3925 116.101 46.8345 116.36 47.3359C116.618 47.8372 116.737 48.3997 116.715 49.0233C116.689 49.7789 116.468 50.4315 116.052 50.9814C115.649 51.5196 115.095 51.9265 114.389 52.2021C113.683 52.4776 112.868 52.5992 111.945 52.567ZM122.525 52.8644C121.589 52.8317 120.787 52.5996 120.118 52.168C119.46 51.7368 118.959 51.1369 118.614 50.3684C118.28 49.6003 118.131 48.7125 118.166 47.7052C118.201 46.6978 118.412 45.8286 118.798 45.0976C119.196 44.355 119.738 43.7916 120.424 43.4073C121.11 43.011 121.909 42.8288 122.82 42.8606C123.684 42.8908 124.438 43.1212 125.083 43.552C125.729 43.9708 126.219 44.5643 126.552 45.3324C126.898 46.1009 127.052 47.0188 127.014 48.0862L126.997 48.5719L120.126 48.3319C120.141 49.269 120.362 49.9792 120.79 50.4624C121.229 50.946 121.833 51.2012 122.6 51.228C123.164 51.2477 123.636 51.1321 124.017 50.8813C124.398 50.6304 124.668 50.2856 124.828 49.8469L126.802 50.042C126.519 50.9206 125.996 51.6228 125.234 52.1485C124.483 52.6626 123.58 52.9013 122.525 52.8644ZM120.176 46.8928L125.033 47.0624C125.003 46.2088 124.779 45.5706 124.361 45.1478C123.956 44.7254 123.423 44.5027 122.764 44.4796C122.08 44.4558 121.509 44.6519 121.05 45.0682C120.604 45.4729 120.312 46.0811 120.176 46.8928ZM128.242 52.8479L128.576 43.2778L130.321 43.3387L130.292 45.7151L130.079 45.6356C130.205 45.1117 130.407 44.6685 130.684 44.3059C130.973 43.9438 131.319 43.6677 131.721 43.4776C132.124 43.2876 132.56 43.2007 133.027 43.2171C133.843 43.2455 134.5 43.5026 135 43.9884C135.499 44.4621 135.801 45.103 135.905 45.9111L135.599 45.9005C135.727 45.3406 135.923 44.8791 136.188 44.5162C136.465 44.1416 136.811 43.8595 137.226 43.6699C137.641 43.4802 138.106 43.3944 138.622 43.4124C139.293 43.4359 139.858 43.5997 140.316 43.9038C140.786 44.1964 141.131 44.6167 141.352 45.1648C141.585 45.7133 141.688 46.3772 141.661 47.1568L141.446 53.309L139.539 53.2424L139.738 47.5579C139.767 46.7304 139.639 46.1016 139.353 45.6713C139.068 45.2411 138.62 45.0153 138.008 44.994C137.613 44.9802 137.261 45.07 136.954 45.2634C136.647 45.4568 136.403 45.7424 136.222 46.1203C136.053 46.4986 135.959 46.9576 135.94 47.4973L135.744 53.1099L133.927 53.0464L134.123 47.4339C134.151 46.6184 134.035 45.9839 133.775 45.5306C133.527 45.0656 133.079 44.8219 132.432 44.7992C132.024 44.785 131.667 44.8746 131.36 45.068C131.065 45.2618 130.826 45.5537 130.645 45.9436C130.463 46.3215 130.364 46.7743 130.345 47.3019L130.149 52.9145L128.242 52.8479ZM146.098 53.6876C145.103 53.6528 144.313 53.3971 143.73 52.9205C143.158 52.4442 142.886 51.7924 142.915 50.9649C142.944 50.1374 143.212 49.5043 143.72 49.0658C144.24 48.6157 145.025 48.3069 146.076 48.1394L149.39 47.6248C149.416 46.8812 149.261 46.3235 148.926 45.9516C148.591 45.5677 148.082 45.3638 147.398 45.3399C146.787 45.3185 146.302 45.4397 145.945 45.7034C145.588 45.9551 145.334 46.3425 145.184 46.8655L143.227 46.6711C143.441 45.718 143.911 44.978 144.638 44.451C145.377 43.9245 146.316 43.6811 147.455 43.7209C148.75 43.7661 149.721 44.1482 150.369 44.8673C151.028 45.5747 151.336 46.5521 151.293 47.7993L151.163 51.523C151.155 51.7509 151.185 51.9141 151.254 52.0125C151.335 52.0994 151.465 52.146 151.645 52.1523L151.987 52.1642L151.934 53.6753C151.874 53.6852 151.778 53.6938 151.645 53.7012C151.513 53.7086 151.375 53.7098 151.231 53.7047C150.823 53.6905 150.472 53.6122 150.176 53.4698C149.893 53.3278 149.685 53.1044 149.551 52.7996C149.418 52.4827 149.361 52.0665 149.379 51.5508L149.574 51.6477C149.463 52.064 149.24 52.4285 148.905 52.741C148.582 53.0539 148.171 53.2977 147.673 53.4724C147.187 53.6356 146.662 53.7073 146.098 53.6876ZM146.457 52.1872C147.032 52.2073 147.528 52.1165 147.943 51.9149C148.359 51.7013 148.688 51.4006 148.929 51.0128C149.171 50.625 149.301 50.1792 149.318 49.6755L149.34 49.0639L146.514 49.5056C145.935 49.5934 145.521 49.7531 145.273 49.9846C145.037 50.2045 144.913 50.4943 144.9 50.8541C144.886 51.2618 145.013 51.5845 145.281 51.8219C145.561 52.0479 145.953 52.1696 146.457 52.1872ZM153.005 53.7127L153.339 44.1425L155.084 44.2034L155.066 46.7604L154.837 46.6263C154.967 46.0064 155.188 45.5099 155.501 45.1366C155.815 44.7633 156.19 44.4942 156.628 44.3294C157.067 44.1526 157.538 44.073 158.041 44.0906C158.761 44.1157 159.349 44.2983 159.805 44.6385C160.274 44.967 160.619 45.4113 160.84 45.9714C161.073 46.5198 161.177 47.1419 161.153 47.8374L160.938 53.9897L159.031 53.9231L159.226 48.3465C159.245 47.7828 159.202 47.307 159.095 46.9191C158.989 46.5311 158.801 46.2304 158.533 46.0169C158.264 45.8034 157.908 45.6889 157.464 45.6734C156.792 45.6499 156.239 45.8527 155.804 46.2818C155.368 46.7109 155.136 47.3512 155.106 48.2026L154.911 53.7792L153.005 53.7127ZM165.573 54.3677C164.577 54.3329 163.788 54.0772 163.204 53.6005C162.632 53.1243 162.361 52.4724 162.39 51.6449C162.419 50.8174 162.687 50.1844 163.195 49.7459C163.715 49.2957 164.5 48.987 165.55 48.8195L168.864 48.3049C168.89 47.5613 168.736 47.0036 168.4 46.6316C168.066 46.2477 167.556 46.0438 166.873 46.02C166.261 45.9986 165.777 46.1198 165.419 46.3835C165.062 46.6351 164.809 47.0225 164.658 47.5456L162.702 47.3512C162.915 46.3981 163.385 45.658 164.112 45.1311C164.851 44.6045 165.79 44.3612 166.929 44.4009C168.225 44.4462 169.196 44.8283 169.843 45.5473C170.503 46.2548 170.811 47.2321 170.767 48.4794L170.637 52.2031C170.629 52.431 170.66 52.5941 170.728 52.6926C170.809 52.7795 170.94 52.826 171.12 52.8323L171.462 52.8443L171.409 54.3553C171.348 54.3652 171.252 54.3739 171.12 54.3813C170.987 54.3887 170.849 54.3898 170.705 54.3848C170.298 54.3706 169.946 54.2923 169.651 54.1499C169.368 54.0079 169.159 53.7845 169.026 53.4796C168.893 53.1628 168.835 52.7465 168.853 52.2309L169.048 52.3277C168.938 52.7441 168.715 53.1086 168.38 53.4211C168.056 53.734 167.646 53.9778 167.147 54.1525C166.661 54.3156 166.136 54.3874 165.573 54.3677ZM165.931 52.8673C166.507 52.8874 167.002 52.7966 167.418 52.595C167.833 52.3814 168.162 52.0807 168.404 51.6928C168.646 51.305 168.775 50.8593 168.793 50.3556L168.814 49.744L165.989 50.1857C165.41 50.2735 164.996 50.4331 164.748 50.6646C164.512 50.8845 164.388 51.1744 164.375 51.5341C164.361 51.9419 164.488 52.2645 164.755 52.502C165.036 52.7279 165.428 52.8497 165.931 52.8673ZM176.366 54.5285L176.701 44.9583L178.446 45.0192L178.428 47.5762L178.199 47.4421C178.329 46.8222 178.55 46.3257 178.863 45.9524C179.176 45.5791 179.552 45.31 179.99 45.1452C180.429 44.9684 180.9 44.8888 181.403 44.9064C182.123 44.9315 182.711 45.1141 183.167 45.4543C183.636 45.7828 183.981 46.2271 184.201 46.7872C184.434 47.3357 184.539 47.9577 184.514 48.6532L184.3 54.8055L182.393 54.7389L182.588 49.1623C182.607 48.5987 182.564 48.1228 182.457 47.7349C182.351 47.3469 182.163 47.0462 181.894 46.8327C181.626 46.6192 181.269 46.5047 180.826 46.4892C180.154 46.4657 179.601 46.6686 179.165 47.0976C178.73 47.5267 178.498 48.167 178.468 49.0185L178.273 54.5951L176.366 54.5285ZM188.935 55.1835C187.939 55.1487 187.15 54.893 186.566 54.4164C185.994 53.9401 185.723 53.2882 185.752 52.4607C185.781 51.6333 186.049 51.0002 186.556 50.5617C187.077 50.1116 187.862 49.8028 188.912 49.6353L192.226 49.1207C192.252 48.3771 192.098 47.8194 191.762 47.4475C191.428 47.0635 190.918 46.8596 190.235 46.8358C189.623 46.8144 189.139 46.9356 188.781 47.1993C188.424 47.451 188.171 47.8383 188.02 48.3614L186.064 48.167C186.277 47.2139 186.747 46.4738 187.474 45.9469C188.213 45.4204 189.152 45.177 190.291 45.2168C191.587 45.262 192.558 45.6441 193.205 46.3632C193.865 47.0706 194.173 48.048 194.129 49.2952L193.999 53.0189C193.991 53.2468 194.022 53.4099 194.09 53.5084C194.171 53.5953 194.302 53.6419 194.482 53.6481L194.823 53.6601L194.771 55.1712C194.71 55.1811 194.614 55.1897 194.482 55.1971C194.349 55.2045 194.211 55.2056 194.067 55.2006C193.659 55.1864 193.308 55.1081 193.013 54.9657C192.73 54.8237 192.521 54.6003 192.388 54.2955C192.255 53.9786 192.197 53.5624 192.215 53.0467L192.41 53.1435C192.299 53.5599 192.076 53.9244 191.741 54.2369C191.418 54.5498 191.008 54.7936 190.509 54.9683C190.023 55.1314 189.498 55.2032 188.935 55.1835ZM189.293 53.6831C189.869 53.7032 190.364 53.6124 190.78 53.4108C191.195 53.1972 191.524 52.8965 191.766 52.5087C192.007 52.1209 192.137 51.6751 192.155 51.1714L192.176 50.5598L189.351 51.0015C188.771 51.0893 188.358 51.249 188.109 51.4804C187.874 51.7003 187.749 51.9902 187.737 52.35C187.723 52.7577 187.849 53.0803 188.117 53.3178C188.398 53.5437 188.79 53.6655 189.293 53.6831ZM204.989 55.8162C203.838 55.776 202.834 55.4767 201.977 54.9185C201.12 54.3482 200.463 53.5568 200.006 52.5443C199.549 51.5317 199.345 50.3358 199.393 48.9567C199.441 47.5895 199.722 46.4166 200.236 45.438C200.763 44.4478 201.474 43.6981 202.368 43.189C203.263 42.6679 204.298 42.4279 205.473 42.4689C207.056 42.5242 208.272 42.9629 209.119 43.785C209.967 44.6071 210.499 45.7243 210.713 47.1367L208.677 47.1736C208.54 46.2923 208.204 45.5961 207.669 45.0852C207.135 44.5622 206.382 44.2838 205.411 44.2498C204.631 44.2226 203.947 44.3968 203.357 44.7725C202.78 45.1486 202.317 45.6967 201.967 46.417C201.63 47.1376 201.443 48.0077 201.408 49.027C201.372 50.0464 201.498 50.9273 201.784 51.6698C202.082 52.4126 202.512 52.986 203.075 53.3899C203.637 53.7937 204.296 54.0089 205.051 54.0352C206.083 54.0713 206.89 53.8293 207.472 53.3093C208.067 52.7777 208.453 52.0348 208.631 51.0804L210.66 51.2593C210.47 52.2252 210.129 53.0538 209.636 53.7451C209.144 54.4363 208.507 54.9664 207.725 55.3354C206.945 55.6923 206.032 55.8526 204.989 55.8162ZM214.58 56.0791C213.585 56.0443 212.795 55.7886 212.212 55.3119C211.64 54.8357 211.368 54.1838 211.397 53.3563C211.426 52.5288 211.695 51.8958 212.202 51.4572C212.722 51.0071 213.507 50.6983 214.558 50.5309L217.872 50.0162C217.898 49.2727 217.743 48.715 217.408 48.343C217.073 47.9591 216.564 47.7552 215.88 47.7313C215.269 47.71 214.784 47.8311 214.427 48.0948C214.07 48.3465 213.816 48.7339 213.666 49.257L211.709 49.0626C211.923 48.1095 212.393 47.3694 213.12 46.8425C213.859 46.3159 214.798 46.0725 215.937 46.1123C217.232 46.1576 218.203 46.5397 218.851 47.2587C219.51 47.9662 219.818 48.9435 219.775 50.1908L219.645 53.9145C219.637 54.1423 219.667 54.3055 219.736 54.404C219.817 54.4908 219.947 54.5374 220.127 54.5437L220.469 54.5556L220.416 56.0667C220.356 56.0766 220.26 56.0853 220.127 56.0926C219.995 56.1 219.857 56.1012 219.713 56.0962C219.305 56.0819 218.954 56.0036 218.658 55.8612C218.375 55.7193 218.167 55.4959 218.033 55.191C217.9 54.8742 217.843 54.4579 217.861 53.9422L218.056 54.0391C217.945 54.4555 217.722 54.8199 217.387 55.1324C217.064 55.4453 216.653 55.6892 216.155 55.8639C215.669 56.027 215.144 56.0987 214.58 56.0791ZM214.939 54.5787C215.514 54.5988 216.01 54.508 216.425 54.3064C216.841 54.0927 217.17 53.792 217.411 53.4042C217.653 53.0164 217.783 52.5707 217.8 52.067L217.822 51.4554L214.996 51.897C214.417 51.9849 214.003 52.1445 213.755 52.376C213.519 52.5959 213.395 52.8857 213.382 53.2455C213.368 53.6533 213.495 53.9759 213.763 54.2134C214.043 54.4393 214.435 54.5611 214.939 54.5787ZM225.097 56.4463C224.197 56.4149 223.44 56.2504 222.826 55.9528C222.224 55.6556 221.764 55.2613 221.445 54.7698C221.126 54.2664 220.954 53.696 220.928 53.0588L222.892 53.0373C222.97 53.5683 223.183 53.996 223.532 54.3204C223.881 54.6448 224.421 54.8197 225.152 54.8453C225.752 54.8662 226.229 54.7868 226.584 54.6071C226.938 54.4273 227.123 54.1276 227.137 53.7078C227.145 53.48 227.092 53.286 226.978 53.1259C226.875 52.9542 226.664 52.8088 226.344 52.6896C226.025 52.5583 225.549 52.4276 224.917 52.2975C223.976 52.0845 223.24 51.8487 222.709 51.59C222.177 51.3313 221.804 51.0121 221.589 50.6323C221.374 50.2526 221.276 49.7989 221.295 49.2712C221.325 48.3958 221.674 47.6935 222.341 47.1645C223.02 46.6358 223.977 46.3931 225.212 46.4362C226.039 46.4651 226.73 46.6333 227.284 46.9408C227.838 47.2363 228.262 47.6294 228.557 48.12C228.865 48.599 229.05 49.1338 229.114 49.7244L227.149 49.7638C227.101 49.426 226.991 49.1339 226.819 48.8878C226.66 48.6301 226.439 48.4303 226.156 48.2883C225.873 48.1343 225.534 48.0504 225.138 48.0366C224.526 48.0153 224.067 48.1193 223.758 48.3487C223.45 48.578 223.289 48.8846 223.276 49.2684C223.266 49.5562 223.324 49.7924 223.449 49.9769C223.587 50.1618 223.81 50.3196 224.117 50.4505C224.425 50.5693 224.836 50.6797 225.348 50.7816C226.338 50.9843 227.11 51.2214 227.665 51.4929C228.22 51.7524 228.606 52.0661 228.821 52.4338C229.036 52.8016 229.135 53.2433 229.117 53.759C229.096 54.3586 228.91 54.8624 228.56 55.2704C228.209 55.6785 227.736 55.9861 227.141 56.1935C226.545 56.3888 225.864 56.4731 225.097 56.4463ZM233.282 56.7321C232.286 56.6974 231.497 56.4417 230.913 55.965C230.341 55.4888 230.07 54.8369 230.099 54.0094C230.128 53.1819 230.396 52.5489 230.904 52.1103C231.424 51.6602 232.209 51.3514 233.259 51.184L236.573 50.6693C236.599 49.9258 236.445 49.368 236.11 48.9961C235.775 48.6122 235.266 48.4083 234.582 48.3844C233.97 48.3631 233.486 48.4842 233.128 48.7479C232.771 48.9996 232.518 49.387 232.367 49.9101L230.411 49.7157C230.624 48.7625 231.094 48.0225 231.821 47.4955C232.56 46.969 233.499 46.7256 234.638 46.7654C235.934 46.8106 236.905 47.1928 237.552 47.9118C238.212 48.6192 238.52 49.5966 238.476 50.8438L238.346 54.5676C238.339 54.7954 238.369 54.9586 238.437 55.057C238.518 55.1439 238.649 55.1905 238.829 55.1968L239.171 55.2087L239.118 56.7198C239.057 56.7297 238.961 56.7383 238.829 56.7457C238.696 56.7531 238.558 56.7543 238.414 56.7493C238.007 56.735 237.655 56.6567 237.36 56.5143C237.077 56.3723 236.868 56.1489 236.735 55.8441C236.602 55.5273 236.544 55.111 236.562 54.5953L236.757 54.6922C236.647 55.1086 236.424 55.473 236.089 55.7855C235.765 56.0984 235.355 56.3422 234.856 56.5169C234.37 56.6801 233.845 56.7518 233.282 56.7321ZM233.64 55.2317C234.216 55.2518 234.712 55.1611 235.127 54.9594C235.543 54.7458 235.871 54.4451 236.113 54.0573C236.355 53.6695 236.484 53.2238 236.502 52.7201L236.523 52.1084L233.698 52.5501C233.119 52.6379 232.705 52.7976 232.457 53.0291C232.221 53.249 232.097 53.5388 232.084 53.8986C232.07 54.3063 232.197 54.629 232.464 54.8665C232.745 55.0924 233.137 55.2141 233.64 55.2317ZM247.468 57.2275C246.652 57.199 245.946 56.9702 245.349 56.5411C244.763 56.1124 244.322 55.5207 244.024 54.7658C243.738 53.9994 243.613 53.1065 243.649 52.0871C243.685 51.0677 243.877 50.1919 244.227 49.4597C244.577 48.7154 245.059 48.1499 245.673 47.7631C246.287 47.3763 247.002 47.1971 247.817 47.2256C248.477 47.2486 249.06 47.4071 249.566 47.7009C250.072 47.9948 250.448 48.3921 250.695 48.8931L250.854 44.3418L252.76 44.4084L252.314 57.1806L250.534 57.1184L250.53 55.6774C250.248 56.1839 249.832 56.5776 249.282 56.8586C248.744 57.128 248.139 57.251 247.468 57.2275ZM248.029 55.5901C248.545 55.6081 248.987 55.4915 249.356 55.2402C249.725 54.9889 250.015 54.6148 250.224 54.1178C250.434 53.6208 250.55 53.0245 250.575 52.329C250.6 51.6094 250.525 51.0004 250.35 50.502C250.176 49.9916 249.913 49.6042 249.562 49.3398C249.212 49.0634 248.779 48.9162 248.263 48.8982C247.496 48.8714 246.873 49.1498 246.397 49.7336C245.921 50.3053 245.664 51.1128 245.628 52.1562C245.592 53.1876 245.791 54.011 246.226 54.6266C246.661 55.2421 247.262 55.5633 248.029 55.5901ZM258.237 57.6036C257.325 57.5717 256.535 57.34 255.866 56.9084C255.196 56.4768 254.689 55.8767 254.343 55.1082C253.998 54.3397 253.843 53.4517 253.878 52.4443C253.914 51.4249 254.13 50.55 254.528 49.8194C254.926 49.0888 255.474 48.5316 256.171 48.1477C256.87 47.7519 257.675 47.5698 258.586 47.6017C259.497 47.6335 260.288 47.8712 260.957 48.3148C261.626 48.7465 262.133 49.3405 262.479 50.0971C262.825 50.8536 262.98 51.7415 262.945 52.7609C262.909 53.7683 262.693 54.6433 262.295 55.3858C261.896 56.1284 261.348 56.6916 260.651 57.0755C259.953 57.4594 259.148 57.6354 258.237 57.6036ZM258.294 55.9486C259.11 55.9771 259.75 55.7052 260.214 55.1331C260.679 54.5489 260.929 53.7352 260.966 52.6918C261.002 51.6485 260.809 50.8252 260.386 50.2221C259.963 49.6069 259.344 49.2851 258.528 49.2567C257.725 49.2286 257.085 49.5064 256.608 50.0901C256.144 50.6623 255.893 51.4701 255.857 52.5134C255.82 53.5568 256.014 54.386 256.436 55.0012C256.872 55.6047 257.491 55.9205 258.294 55.9486ZM273.058 58.1932C272.051 58.158 271.176 57.9353 270.434 57.5252C269.704 57.1035 269.148 56.5257 268.765 55.7919C268.395 55.0585 268.227 54.2001 268.261 53.2167L268.55 44.9418L270.493 45.0096L270.204 53.2846C270.17 54.256 270.407 55.0147 270.917 55.5609C271.426 56.095 272.161 56.3788 273.12 56.4123C274.08 56.4458 274.832 56.2139 275.378 55.7166C275.924 55.2074 276.214 54.4671 276.248 53.4957L276.537 45.2207L278.48 45.2885L278.191 53.5635C278.156 54.5469 277.923 55.3913 277.49 56.0966C277.069 56.8023 276.48 57.3401 275.723 57.7099C274.966 58.0677 274.078 58.2288 273.058 58.1932ZM280.126 58.1518L280.46 48.5817L282.205 48.6426L282.188 51.1816L282.028 51.1219C282.19 50.2631 282.476 49.6427 282.886 49.2607C283.307 48.8792 283.86 48.7004 284.544 48.7243L285.461 48.7563L285.401 50.4653L284.484 50.4332C284.004 50.4165 283.6 50.4804 283.271 50.625C282.941 50.7696 282.687 51.0009 282.508 51.3188C282.341 51.6371 282.248 52.0542 282.23 52.5699L282.033 58.2184L280.126 58.1518ZM289.626 58.6997C288.726 58.6683 287.97 58.5038 287.356 58.2062C286.754 57.909 286.293 57.5147 285.974 57.0232C285.656 56.5198 285.483 55.9495 285.458 55.3122L287.422 55.2907C287.499 55.8217 287.712 56.2494 288.061 56.5738C288.41 56.8982 288.95 57.0731 289.682 57.0987C290.281 57.1196 290.758 57.0402 291.113 56.8605C291.467 56.6807 291.652 56.381 291.667 55.9613C291.675 55.7334 291.621 55.5394 291.507 55.3793C291.405 55.2077 291.194 55.0622 290.874 54.943C290.554 54.8117 290.078 54.681 289.447 54.5509C288.505 54.3379 287.769 54.1021 287.238 53.8434C286.707 53.5847 286.334 53.2655 286.119 52.8858C285.904 52.506 285.806 52.0523 285.824 51.5246C285.855 50.6492 286.203 49.9469 286.87 49.4179C287.549 48.8892 288.506 48.6465 289.741 48.6896C290.569 48.7185 291.259 48.8867 291.813 49.1942C292.367 49.4898 292.792 49.8828 293.087 50.3734C293.394 50.8524 293.579 51.3872 293.643 51.9778L291.678 52.0173C291.63 51.6794 291.52 51.3874 291.349 51.1412C291.19 50.8835 290.968 50.6837 290.685 50.5417C290.402 50.3877 290.063 50.3038 289.667 50.29C289.056 50.2687 288.596 50.3727 288.288 50.6021C287.979 50.8315 287.819 51.138 287.805 51.5218C287.795 51.8096 287.853 52.0458 287.979 52.2303C288.116 52.4152 288.339 52.5731 288.647 52.7039C288.955 52.8227 289.365 52.9331 289.878 53.035C290.867 53.2377 291.639 53.4748 292.194 53.7463C292.75 54.0059 293.135 54.3195 293.35 54.6872C293.565 55.055 293.664 55.4967 293.646 56.0124C293.625 56.612 293.439 57.1158 293.089 57.5238C292.739 57.9319 292.266 58.2395 291.67 58.4469C291.075 58.6422 290.393 58.7265 289.626 58.6997ZM298.877 59.0228C297.966 58.9909 297.175 58.7592 296.506 58.3276C295.837 57.896 295.329 57.2959 294.984 56.5274C294.638 55.7588 294.483 54.8709 294.519 53.8635C294.554 52.8441 294.771 51.9692 295.169 51.2386C295.566 50.508 296.114 49.9508 296.812 49.5669C297.51 49.1711 298.315 48.989 299.226 49.0209C300.138 49.0527 300.928 49.2904 301.597 49.734C302.266 50.1657 302.774 50.7597 303.12 51.5163C303.466 52.2728 303.621 53.1607 303.585 54.1801C303.55 55.1875 303.333 56.0625 302.935 56.805C302.537 57.5476 301.989 58.1108 301.291 58.4947C300.593 58.8786 299.789 59.0546 298.877 59.0228ZM298.935 57.3678C299.75 57.3963 300.39 57.1244 300.855 56.5523C301.319 55.9681 301.57 55.1544 301.606 54.111C301.643 53.0677 301.449 52.2444 301.026 51.6413C300.603 51.0261 299.984 50.7043 299.169 50.6759C298.365 50.6478 297.725 50.9256 297.248 51.5093C296.784 52.0815 296.534 52.8892 296.497 53.9326C296.461 54.976 296.654 55.8052 297.077 56.4204C297.512 57.0239 298.131 57.3397 298.935 57.3678Z" fill="black"/>
<g clip-path="url(#clip1_32141_3132)">
<rect x="47.3711" y="79.041" width="444.337" height="89.9948" rx="16" transform="rotate(2 47.3711 79.041)" fill="white" fill-opacity="0.6"/>
<g clip-path="url(#clip2_32141_3132)">
<g clip-path="url(#clip3_32141_3132)">
<path d="M105.764 126.105C106.227 112.858 95.863 101.745 82.6162 101.282C69.3695 100.819 58.2559 111.183 57.7933 124.43C57.3307 137.676 67.6943 148.79 80.9411 149.253C94.1878 149.715 105.301 139.352 105.764 126.105Z" fill="#F87171" fill-opacity="0.1"/>
<path d="M89.0527 117.516L75.0613 117.028C73.9574 116.989 73.0312 117.853 72.9927 118.957L72.5041 132.948C72.4656 134.052 73.3292 134.978 74.4331 135.017L88.4245 135.505C89.5284 135.544 90.4546 134.68 90.4931 133.576L90.9817 119.585C91.0203 118.481 90.1566 117.555 89.0527 117.516Z" stroke="#7C3AED" stroke-width="1.5" stroke-linecap="round" stroke-linejoin="round"/>
<path d="M86.125 115.413L85.9854 119.411" stroke="#7C3AED" stroke-width="1.5" stroke-linecap="round" stroke-linejoin="round"/>
<path d="M78.1309 115.134L77.9913 119.131" stroke="#7C3AED" stroke-width="1.5" stroke-linecap="round" stroke-linejoin="round"/>
<path d="M72.8535 122.954L90.8426 123.582" stroke="#7C3AED" stroke-width="1.5" stroke-linecap="round" stroke-linejoin="round"/>
</g>
</g>
<path d="M130.167 119.68L119.019 119.313L119.093 117.202L124.503 112.944C126.744 111.174 127.506 110.144 127.56 108.604C127.624 106.78 126.67 105.712 124.977 105.653C123.218 105.591 122.076 106.784 121.982 108.85L119.19 108.752C119.334 105.235 121.657 103.027 125.065 103.146C128.495 103.266 130.559 105.297 130.446 108.551C130.367 110.794 129.077 112.444 126.563 114.447L123.574 116.83L130.258 117.064L130.167 119.68ZM132.18 111.76C132.354 106.769 135.155 103.476 139.266 103.62C143.378 103.764 145.964 107.244 145.789 112.235C145.616 117.204 142.949 120.435 138.684 120.286C134.419 120.137 132.006 116.729 132.18 111.76ZM134.95 111.856C134.82 115.572 136.242 117.713 138.771 117.801C141.321 117.89 142.889 115.854 143.019 112.138C143.152 108.334 141.73 106.194 139.179 106.104C136.651 106.016 135.083 108.053 134.95 111.856Z" fill="#161616"/>
<g clip-path="url(#clip4_32141_3132)">
<path opacity="0.5" d="M404.111 129.293L421.234 134.117L438.504 134.72L456.659 110L473.015 136.77" stroke="#7C3AED" stroke-width="2.46158" stroke-linecap="round" stroke-linejoin="round"/>
<path d="M472.871 140.858C475.142 140.937 477.047 139.171 477.126 136.913C477.205 134.655 475.428 132.76 473.157 132.681C470.886 132.601 468.981 134.368 468.902 136.626C468.823 138.883 470.6 140.778 472.871 140.858Z" fill="#7C3AED"/>
</g>
<path d="M118.052 134.399C118.106 132.84 119.389 131.857 121.26 131.923C122.936 131.981 124.008 132.955 124.096 134.519L123.148 134.486C123.08 133.43 122.387 132.808 121.217 132.767C119.905 132.721 119.024 133.367 118.987 134.419C118.959 135.237 119.421 135.774 120.387 136.055L121.972 136.5C123.414 136.902 124.139 137.76 124.095 139.02C124.039 140.631 122.756 141.614 120.833 141.547C119.027 141.484 117.839 140.493 117.775 138.968L118.736 139.002C118.754 139.978 119.589 140.645 120.863 140.689C122.227 140.737 123.12 140.105 123.158 139.039C123.187 138.208 122.738 137.646 121.746 137.377L120.187 136.932C118.745 136.531 118.007 135.673 118.052 134.399ZM128.128 141.801C126.283 141.737 125.095 140.369 125.164 138.394C125.232 136.432 126.501 135.124 128.293 135.186C129.995 135.246 131.11 136.494 131.047 138.274L131.032 138.716L126.03 138.541C126.041 140.077 126.816 140.988 128.167 141.035C129.194 141.071 129.872 140.653 130.135 139.829L130.992 139.859C130.608 141.173 129.609 141.853 128.128 141.801ZM128.267 135.953C127.084 135.911 126.278 136.664 126.079 137.893L130.158 138.035C130.2 136.827 129.449 135.994 128.267 135.953ZM131.889 140.008L132.746 140.038C132.721 140.765 133.25 141.239 134.134 141.27C135.108 141.304 135.694 140.908 135.718 140.232C135.736 139.713 135.487 139.405 134.753 139.197L133.684 138.887C132.602 138.576 132.089 137.985 132.119 137.128C132.158 136.024 133.105 135.354 134.456 135.401C135.781 135.448 136.613 136.205 136.611 137.376L135.741 137.345C135.74 136.617 135.249 136.171 134.404 136.141C133.521 136.11 133.014 136.47 132.99 137.145C132.973 137.626 133.299 137.976 133.982 138.169L135.051 138.479C136.133 138.79 136.609 139.314 136.577 140.223C136.537 141.354 135.55 142.061 134.121 142.011C132.705 141.961 131.848 141.177 131.889 140.008ZM137.522 140.204L138.379 140.234C138.354 140.962 138.884 141.436 139.767 141.466C140.742 141.501 141.328 141.105 141.351 140.429C141.37 139.909 141.12 139.602 140.386 139.394L139.317 139.083C138.235 138.772 137.723 138.182 137.753 137.325C137.791 136.22 138.738 135.551 140.089 135.598C141.414 135.644 142.246 136.402 142.245 137.573L141.374 137.542C141.374 136.814 140.882 136.367 140.037 136.338C139.154 136.307 138.647 136.666 138.623 137.342C138.607 137.823 138.933 138.172 139.615 138.365L140.684 138.676C141.766 138.987 142.242 139.511 142.21 140.42C142.171 141.55 141.183 142.257 139.754 142.207C138.338 142.158 137.481 141.374 137.522 140.204ZM145.464 135.005L144.827 134.983C144.805 134.124 145.187 133.617 145.824 133.639C146.538 133.664 146.852 134.377 147.371 134.396C147.683 134.406 147.821 134.177 147.838 133.709L148.487 133.732C148.482 134.629 148.101 135.097 147.413 135.073C146.659 135.047 146.346 134.334 145.904 134.318C145.644 134.309 145.48 134.551 145.464 135.005ZM143.294 139.027C143.361 137.104 144.761 135.761 146.606 135.826C148.451 135.89 149.753 137.327 149.686 139.25C149.62 141.16 148.22 142.503 146.375 142.439C144.53 142.374 143.227 140.937 143.294 139.027ZM144.204 139.046C144.152 140.527 145.052 141.586 146.403 141.633C147.741 141.68 148.726 140.687 148.777 139.206C148.828 137.75 147.916 136.678 146.578 136.631C145.227 136.584 144.255 137.591 144.204 139.046ZM153.642 142.692C151.797 142.628 150.609 141.26 150.678 139.285C150.747 137.323 152.015 136.015 153.808 136.077C155.51 136.137 156.624 137.385 156.562 139.165L156.547 139.607L151.545 139.432C151.556 140.968 152.331 141.879 153.682 141.926C154.708 141.962 155.386 141.544 155.649 140.72L156.507 140.75C156.123 142.064 155.123 142.744 153.642 142.692ZM153.781 136.844C152.599 136.802 151.792 137.555 151.593 138.784L155.673 138.926C155.715 137.718 154.964 136.885 153.781 136.844ZM157.403 140.899L158.261 140.929C158.235 141.656 158.765 142.13 159.649 142.161C160.623 142.195 161.209 141.799 161.233 141.123C161.251 140.604 161.002 140.296 160.267 140.088L159.199 139.778C158.117 139.467 157.604 138.876 157.634 138.019C157.673 136.915 158.619 136.245 159.971 136.292C161.296 136.339 162.128 137.096 162.126 138.267L161.256 138.236C161.255 137.508 160.763 137.062 159.919 137.032C159.035 137.001 158.528 137.361 158.505 138.036C158.488 138.517 158.814 138.867 159.497 139.06L160.566 139.37C161.647 139.681 162.123 140.205 162.092 141.114C162.052 142.245 161.065 142.952 159.636 142.902C158.22 142.852 157.362 142.068 157.403 140.899ZM169.743 143.255C167.898 143.19 166.71 141.822 166.779 139.847C166.847 137.885 168.116 136.577 169.909 136.639C171.611 136.699 172.725 137.948 172.663 139.727L172.647 140.169L167.645 139.995C167.657 141.53 168.431 142.441 169.783 142.489C170.809 142.524 171.487 142.106 171.75 141.283L172.607 141.312C172.223 142.626 171.224 143.306 169.743 143.255ZM169.882 137.406C168.7 137.365 167.893 138.117 167.694 139.346L171.773 139.488C171.816 138.28 171.064 137.447 169.882 137.406ZM173.504 141.461L174.361 141.491C174.336 142.218 174.866 142.692 175.749 142.723C176.724 142.757 177.31 142.361 177.333 141.686C177.351 141.166 177.102 140.858 176.368 140.65L175.299 140.34C174.217 140.029 173.705 139.439 173.734 138.581C173.773 137.477 174.72 136.807 176.071 136.855C177.396 136.901 178.228 137.658 178.227 138.829L177.356 138.799C177.356 138.07 176.864 137.624 176.019 137.594C175.136 137.563 174.629 137.923 174.605 138.599C174.589 139.079 174.915 139.429 175.597 139.622L176.666 139.932C177.748 140.243 178.224 140.767 178.192 141.677C178.153 142.807 177.165 143.514 175.736 143.464C174.32 143.415 173.463 142.63 173.504 141.461ZM181.05 143.493L180.167 143.463L180.36 137.928L179.1 137.884L179.126 137.13L180.386 137.174L180.456 135.187L181.339 135.218L181.27 137.205L182.53 137.249L182.504 138.003L181.243 137.959L181.05 143.493ZM185.177 143.794C183.839 143.747 183.072 142.966 183.111 141.861C183.151 140.705 184.06 140.008 185.532 139.943L187.617 139.846L187.624 139.639C187.667 138.404 186.94 137.989 186.018 137.956C184.927 137.918 184.26 138.389 184.23 139.234L183.412 139.205C183.456 137.932 184.524 137.15 186.07 137.204C187.525 137.255 188.565 138.019 188.507 139.682L188.365 143.749L187.612 143.723L187.533 142.614C187.116 143.393 186.242 143.831 185.177 143.794ZM185.41 143.073C186.735 143.12 187.534 142.224 187.582 140.86L187.593 140.522L185.731 140.6C184.545 140.663 184.046 141.166 184.021 141.867C183.995 142.634 184.553 143.043 185.41 143.073ZM193.296 142.152L194.154 142.182C194.129 142.91 194.658 143.383 195.542 143.414C196.516 143.448 197.102 143.052 197.126 142.377C197.144 141.857 196.895 141.549 196.16 141.342L195.092 141.031C194.01 140.72 193.497 140.13 193.527 139.272C193.566 138.168 194.513 137.499 195.864 137.546C197.189 137.592 198.021 138.35 198.019 139.52L197.149 139.49C197.148 138.761 196.656 138.315 195.812 138.285C194.928 138.255 194.422 138.614 194.398 139.29C194.381 139.77 194.707 140.12 195.39 140.313L196.459 140.623C197.541 140.934 198.017 141.458 197.985 142.368C197.945 143.498 196.958 144.205 195.529 144.155C194.113 144.106 193.256 143.321 193.296 142.152ZM202.033 144.382C200.188 144.318 199 142.95 199.069 140.975C199.137 139.013 200.406 137.704 202.199 137.767C203.901 137.826 205.015 139.075 204.953 140.855L204.937 141.297L199.935 141.122C199.947 142.657 200.721 143.569 202.072 143.616C203.099 143.652 203.777 143.233 204.04 142.41L204.897 142.44C204.513 143.753 203.514 144.434 202.033 144.382ZM202.172 138.534C200.99 138.492 200.183 139.245 199.984 140.473L204.063 140.616C204.106 139.408 203.354 138.575 202.172 138.534ZM207.161 144.405L206.265 144.374L206.484 138.086L207.264 138.113L207.336 139.013C207.671 138.361 208.387 137.983 209.27 138.014C210.258 138.048 210.98 138.594 211.251 139.423C211.565 138.614 212.35 138.122 213.363 138.157C214.727 138.205 215.593 139.119 215.542 140.574L215.398 144.693L214.528 144.663L214.665 140.726C214.703 139.648 214.127 138.99 213.166 138.957C212.114 138.92 211.462 139.691 211.428 140.665L211.293 144.55L210.409 144.519L210.547 140.569C210.584 139.504 209.995 138.859 209.047 138.826C207.995 138.789 207.331 139.546 207.297 140.508L207.161 144.405ZM219.002 144.975C217.664 144.928 216.897 144.147 216.936 143.043C216.976 141.886 217.885 141.19 219.357 141.124L221.442 141.028L221.449 140.82C221.492 139.586 220.766 139.17 219.843 139.138C218.752 139.1 218.085 139.571 218.055 140.415L217.237 140.386C217.281 139.113 218.349 138.331 219.895 138.385C221.35 138.436 222.39 139.201 222.332 140.864L222.19 144.93L221.437 144.904L221.358 143.795C220.941 144.574 220.067 145.012 219.002 144.975ZM219.235 144.255C220.56 144.301 221.359 143.405 221.407 142.041L221.418 141.703L219.556 141.781C218.37 141.844 217.871 142.347 217.846 143.048C217.82 143.815 218.378 144.225 219.235 144.255ZM224.886 145.024L223.989 144.993L224.209 138.705L224.988 138.732L225.08 139.828C225.524 139.037 226.371 138.611 227.281 138.643C229.009 138.703 229.688 139.755 229.632 141.34L229.498 145.185L228.601 145.154L228.729 141.503C228.78 140.035 228.136 139.492 227.096 139.456C225.81 139.411 225.05 140.321 225 141.737L224.886 145.024ZM233.085 145.467C231.747 145.42 230.981 144.639 231.019 143.534C231.06 142.378 231.968 141.681 233.441 141.616L235.525 141.519L235.533 141.312C235.576 140.077 234.849 139.662 233.926 139.629C232.835 139.591 232.168 140.062 232.139 140.907L231.32 140.878C231.365 139.605 232.433 138.823 233.979 138.877C235.434 138.928 236.474 139.692 236.416 141.355L236.274 145.422L235.52 145.396L235.442 144.287C235.024 145.066 234.15 145.504 233.085 145.467ZM233.318 144.746C234.644 144.793 235.442 143.897 235.49 142.533L235.502 142.195L233.639 142.273C232.453 142.336 231.954 142.839 231.93 143.54C231.903 144.307 232.461 144.716 233.318 144.746Z" fill="#6B6B6B"/>
<path d="M123.537 151.762L124.038 152.31L120.635 155.493L117.462 152.08L118.011 151.569L120.316 154.031L120.56 147.035L121.31 147.061L121.066 154.057L123.537 151.762ZM129.986 150.977L129.267 150.951L129.289 150.302L131.407 148.405L128.159 148.291L128.189 147.422L132.676 147.578L132.649 148.368L130.604 150.188C131.828 150.381 132.729 151.242 132.683 152.542C132.632 154.001 131.5 154.892 130.031 154.841C128.612 154.791 127.623 153.886 127.676 152.387L128.645 152.421C128.612 153.36 129.173 153.93 130.082 153.962C131.021 153.995 131.652 153.416 131.684 152.487C131.715 151.617 131.135 151.017 129.986 150.977ZM134.97 148.539L133.451 148.486L133.482 147.607L135.94 147.692L135.688 154.918L134.749 154.885L134.97 148.539ZM139.582 153.633L140.482 153.665C140.464 154.164 140.833 154.477 141.453 154.499C142.113 154.522 142.502 154.265 142.518 153.816C142.529 153.486 142.376 153.28 141.871 153.133L141.019 152.903C140.156 152.663 139.762 152.219 139.787 151.499C139.818 150.6 140.598 150.056 141.677 150.094C142.746 150.131 143.425 150.755 143.412 151.686L142.513 151.654C142.51 151.164 142.191 150.842 141.622 150.823C141.032 150.802 140.693 151.05 140.677 151.5C140.666 151.83 140.898 152.058 141.373 152.195L142.226 152.435C143.048 152.664 143.445 153.058 143.419 153.787C143.387 154.717 142.567 155.278 141.407 155.238C140.258 155.198 139.55 154.563 139.582 153.633ZM146.517 155.416C145.077 155.366 144.124 154.292 144.177 152.773C144.231 151.244 145.237 150.218 146.656 150.268C148.046 150.316 148.921 151.308 148.871 152.757L148.859 153.107L145.081 152.985C145.115 154.016 145.634 154.605 146.564 154.637C147.293 154.663 147.784 154.38 147.963 153.826L148.842 153.856C148.566 154.897 147.726 155.458 146.517 155.416ZM146.629 151.057C145.809 151.029 145.273 151.5 145.123 152.356L147.941 152.454C147.969 151.645 147.458 151.086 146.629 151.057ZM150.768 155.445L149.829 155.412L149.999 150.525L150.839 150.554L150.906 151.197C151.172 150.746 151.703 150.444 152.393 150.468C153.152 150.495 153.679 150.893 153.907 151.512C154.158 150.91 154.761 150.551 155.521 150.578C156.64 150.617 157.295 151.34 157.256 152.469L157.144 155.667L156.225 155.635L156.328 152.667C156.355 151.897 155.941 151.443 155.281 151.42C154.572 151.395 154.085 151.878 154.057 152.658L153.956 155.556L153.027 155.524L153.131 152.545C153.158 151.776 152.753 151.341 152.093 151.318C151.383 151.294 150.897 151.767 150.869 152.546L150.768 155.445ZM159.142 155.857C158.752 155.844 158.433 155.512 158.447 155.132C158.46 154.743 158.801 154.434 159.191 154.448C159.571 154.461 159.889 154.793 159.876 155.182C159.863 155.562 159.522 155.87 159.142 155.857ZM165.366 156.074C164.317 156.038 163.718 155.427 163.749 154.537C163.78 153.638 164.469 153.101 165.622 153.052L167.165 152.985L167.17 152.845C167.199 152.026 166.719 151.719 166.059 151.696C165.27 151.668 164.808 152.003 164.787 152.592L163.968 152.564C164.003 151.544 164.866 150.904 166.126 150.948C167.335 150.99 168.132 151.658 168.086 152.978L167.979 156.046L167.179 156.018L167.107 155.225C166.837 155.776 166.156 156.102 165.366 156.074ZM165.661 155.354C166.551 155.385 167.111 154.825 167.143 153.905L167.152 153.645L165.899 153.702C165.067 153.753 164.716 154.061 164.699 154.54C164.681 155.06 165.052 155.333 165.661 155.354ZM170.219 156.124L169.28 156.091L169.45 151.204L170.3 151.234L170.374 151.987C170.703 151.438 171.334 151.13 172.024 151.154C173.313 151.199 173.875 152.009 173.831 153.258L173.727 156.246L172.788 156.214L172.885 153.435C172.919 152.446 172.473 152.03 171.754 152.005C170.874 151.974 170.343 152.586 170.31 153.535L170.219 156.124ZM176.407 156.34L175.468 156.307L175.611 152.21L174.652 152.176L174.679 151.387L175.639 151.42L175.692 149.891L176.631 149.924L176.578 151.453L177.537 151.486L177.51 152.276L176.55 152.242L176.407 156.34ZM180.266 156.595C178.826 156.545 177.873 155.471 177.926 153.952C177.98 152.422 178.986 151.397 180.405 151.447C181.794 151.495 182.67 152.486 182.62 153.935L182.608 154.285L178.83 154.163C178.864 155.195 179.383 155.783 180.313 155.816C181.042 155.841 181.533 155.558 181.712 155.004L182.591 155.035C182.315 156.076 181.475 156.637 180.266 156.595ZM180.378 152.236C179.558 152.207 179.021 152.679 178.872 153.534L181.69 153.633C181.718 152.823 181.207 152.265 180.378 152.236ZM186.548 151.761L186.518 152.621L186.098 152.606C185.209 152.575 184.64 153.095 184.607 154.035L184.517 156.623L183.578 156.59L183.748 151.713L184.627 151.744L184.662 152.486C184.879 151.983 185.381 151.66 186.05 151.684C186.22 151.69 186.36 151.714 186.548 151.761ZM187.928 150.689C187.588 150.677 187.318 150.387 187.33 150.047C187.342 149.698 187.631 149.437 187.971 149.449C188.311 149.461 188.581 149.741 188.569 150.091C188.557 150.43 188.268 150.7 187.928 150.689ZM187.257 156.719L187.428 151.832L188.367 151.865L188.196 156.752L187.257 156.719ZM189.326 154.34C189.379 152.831 190.495 151.809 191.964 151.86C193.423 151.911 194.466 153.008 194.413 154.517C194.36 156.026 193.244 157.048 191.785 156.997C190.316 156.946 189.273 155.849 189.326 154.34ZM190.275 154.373C190.24 155.392 190.865 156.124 191.814 156.158C192.754 156.19 193.438 155.504 193.474 154.484C193.509 153.465 192.874 152.732 191.935 152.7C190.985 152.667 190.311 153.353 190.275 154.373ZM198.338 152.173L198.308 153.032L197.888 153.018C196.998 152.987 196.43 153.507 196.397 154.446L196.307 157.035L195.367 157.002L195.538 152.125L196.417 152.156L196.451 152.897C196.669 152.395 197.171 152.072 197.84 152.095C198.01 152.101 198.149 152.126 198.338 152.173Z" fill="#FF6B6B"/>
<rect x="43.9512" y="176.977" width="444.337" height="89.9948" rx="16" transform="rotate(2 43.9512 176.977)" fill="white" fill-opacity="0.6"/>
<g clip-path="url(#clip5_32141_3132)">
<g clip-path="url(#clip6_32141_3132)">
<path d="M102.344 224.04C102.807 210.794 92.4431 199.68 79.1963 199.217C65.9496 198.755 54.8359 209.119 54.3733 222.365C53.9108 235.612 64.2744 246.726 77.5211 247.188C90.7679 247.651 101.882 237.287 102.344 224.04Z" fill="#F59E0B" fill-opacity="0.1"/>
<path d="M80.7068 213.279L72.7117 212.999C72.1815 212.981 71.6658 213.174 71.2779 213.536C70.8899 213.897 70.6616 214.398 70.6431 214.929L70.0847 230.919C70.0662 231.449 70.259 231.965 70.6208 232.353C70.9825 232.74 71.4835 232.969 72.0137 232.987L84.0064 233.406C84.5365 233.425 85.0522 233.232 85.4402 232.87C85.8281 232.508 86.0564 232.007 86.0749 231.477L86.4937 219.484L80.7068 213.279Z" stroke="#F59E0B" stroke-width="1.5" stroke-linecap="round" stroke-linejoin="round"/>
<path d="M80.707 213.278L80.4976 219.275L86.494 219.484" stroke="#F59E0B" stroke-width="1.5" stroke-linecap="round" stroke-linejoin="round"/>
<path d="M74.3262 224.062L82.3213 224.342" stroke="#F59E0B" stroke-width="1.5" stroke-linecap="round" stroke-linejoin="round"/>
<path d="M74.1875 228.06L82.1827 228.339" stroke="#F59E0B" stroke-width="1.5" stroke-linecap="round" stroke-linejoin="round"/>
</g>
</g>
<path d="M119.324 203.818L115.806 203.696L115.895 201.167L122.117 201.384L121.555 217.457L118.851 217.362L119.324 203.818ZM135.505 217.922L124.357 217.554L124.431 215.444L129.841 211.186C132.082 209.415 132.845 208.385 132.898 206.846C132.962 205.021 132.009 203.953 130.316 203.894C128.557 203.833 127.415 205.025 127.32 207.091L124.528 206.994C124.673 203.477 126.995 201.269 130.403 201.388C133.833 201.507 135.898 203.539 135.784 206.793C135.706 209.035 134.415 210.685 131.902 212.689L128.913 215.072L135.597 215.305L135.505 217.922Z" fill="#161616"/>
<g clip-path="url(#clip7_32141_3132)">
<path opacity="0.5" d="M430.279 212.227L440.587 217.924L450.708 228.952L461.202 229.319L471.695 229.685" stroke="#F59E0B" stroke-width="1.5" stroke-linecap="round" stroke-linejoin="round"/>
<path d="M471.609 232.183C472.989 232.231 474.147 231.151 474.195 229.772C474.243 228.392 473.163 227.234 471.784 227.186C470.404 227.138 469.246 228.217 469.198 229.597C469.15 230.977 470.229 232.135 471.609 232.183Z" fill="#F59E0B"/>
</g>
<path d="M116.024 235.275L115.088 235.242L115.413 225.94L118.882 226.061C120.766 226.127 121.873 227.206 121.815 228.856C121.769 230.194 121.034 231.105 119.828 231.388L121.675 235.472L120.636 235.436L118.874 231.511L116.159 231.416L116.024 235.275ZM116.319 226.817L116.188 230.572L118.748 230.661C120.034 230.706 120.812 230.031 120.853 228.848C120.895 227.64 120.126 226.95 118.853 226.905L116.319 226.817ZM125.379 235.758C123.534 235.693 122.346 234.325 122.415 232.35C122.484 230.388 123.752 229.08 125.545 229.142C127.247 229.202 128.361 230.45 128.299 232.23L128.284 232.672L123.282 232.497C123.293 234.033 124.068 234.944 125.419 234.991C126.445 235.027 127.123 234.609 127.386 233.785L128.244 233.815C127.86 235.129 126.86 235.809 125.379 235.758ZM125.518 229.909C124.336 229.868 123.529 230.62 123.33 231.849L127.41 231.991C127.452 230.783 126.701 229.95 125.518 229.909ZM130.547 235.782L129.65 235.751L129.981 226.279L130.877 226.311L130.547 235.782ZM134.254 236.067C132.915 236.021 132.149 235.24 132.188 234.135C132.228 232.979 133.137 232.282 134.609 232.217L136.694 232.12L136.701 231.912C136.744 230.678 136.017 230.262 135.095 230.23C134.004 230.192 133.337 230.663 133.307 231.508L132.489 231.479C132.533 230.206 133.601 229.424 135.147 229.478C136.602 229.528 137.642 230.293 137.584 231.956L137.442 236.023L136.689 235.996L136.61 234.888C136.193 235.667 135.319 236.105 134.254 236.067ZM134.487 235.347C135.812 235.393 136.611 234.498 136.659 233.134L136.67 232.796L134.807 232.874C133.622 232.937 133.123 233.439 133.098 234.141C133.071 234.908 133.629 235.317 134.487 235.347ZM140.569 236.132L139.686 236.101L139.879 230.566L138.619 230.522L138.645 229.769L139.905 229.813L139.975 227.825L140.858 227.856L140.789 229.844L142.049 229.888L142.022 230.641L140.762 230.597L140.569 236.132ZM147.377 227.797L146.335 229.309L145.595 229.283L146.428 227.764L147.377 227.797ZM142.601 233.055C142.668 231.132 144.068 229.789 145.913 229.854C147.758 229.918 149.06 231.355 148.993 233.278C148.927 235.188 147.527 236.531 145.682 236.467C143.837 236.402 142.535 234.965 142.601 233.055ZM143.511 233.074C143.459 234.555 144.359 235.614 145.71 235.661C147.048 235.708 148.033 234.715 148.084 233.233C148.135 231.778 147.223 230.706 145.885 230.659C144.534 230.612 143.562 231.619 143.511 233.074ZM153.827 230.221L153.798 231.027L153.305 231.009C152.148 230.969 151.381 231.723 151.339 232.918L151.214 236.504L150.317 236.472L150.537 230.184L151.381 230.214L151.412 231.19C151.683 230.523 152.361 230.105 153.244 230.136C153.439 230.142 153.608 230.161 153.827 230.221ZM155.518 228.628C155.154 228.615 154.866 228.306 154.878 227.942C154.891 227.579 155.201 227.277 155.564 227.29C155.928 227.303 156.229 227.625 156.216 227.989C156.204 228.353 155.881 228.641 155.518 228.628ZM154.796 236.629L155.016 230.341L155.912 230.372L155.692 236.66L154.796 236.629ZM157.23 233.566C157.297 231.643 158.697 230.3 160.542 230.364C162.387 230.429 163.689 231.866 163.622 233.789C163.555 235.699 162.156 237.042 160.311 236.977C158.466 236.913 157.163 235.476 157.23 233.566ZM158.14 233.585C158.088 235.066 158.988 236.125 160.339 236.172C161.677 236.219 162.661 235.225 162.713 233.744C162.764 232.289 161.852 231.217 160.514 231.17C159.162 231.123 158.191 232.129 158.14 233.585ZM164.475 235.198L165.333 235.228C165.307 235.955 165.837 236.429 166.72 236.46C167.695 236.494 168.281 236.098 168.305 235.422C168.323 234.903 168.073 234.595 167.339 234.387L166.27 234.077C165.189 233.766 164.676 233.175 164.706 232.318C164.744 231.214 165.691 230.544 167.042 230.591C168.368 230.638 169.2 231.395 169.198 232.566L168.327 232.535C168.327 231.807 167.835 231.361 166.991 231.331C166.107 231.3 165.6 231.66 165.577 232.335C165.56 232.816 165.886 233.166 166.569 233.359L167.637 233.669C168.719 233.98 169.195 234.504 169.163 235.413C169.124 236.544 168.137 237.251 166.708 237.201C165.291 237.151 164.434 236.367 164.475 235.198ZM174.087 240.047L174.402 231.018L175.182 231.045L175.228 232.321C175.704 231.362 176.604 230.925 177.656 230.962C179.475 231.026 180.518 232.454 180.452 234.351C180.385 236.248 179.283 237.64 177.425 237.575C176.36 237.538 175.531 237.054 175.121 236.129L174.983 240.078L174.087 240.047ZM175.202 234.193C175.152 235.636 175.92 236.716 177.297 236.764C178.662 236.812 179.491 235.787 179.541 234.345C179.592 232.89 178.836 231.823 177.472 231.775C176.095 231.727 175.253 232.738 175.202 234.193ZM184.402 237.819C182.557 237.754 181.369 236.386 181.438 234.411C181.506 232.449 182.775 231.141 184.568 231.203C186.27 231.263 187.384 232.512 187.322 234.291L187.306 234.733L182.304 234.559C182.316 236.094 183.09 237.005 184.442 237.053C185.468 237.088 186.146 236.67 186.409 235.847L187.266 235.876C186.882 237.19 185.883 237.87 184.402 237.819ZM184.541 231.97C183.359 231.929 182.552 232.681 182.353 233.91L186.432 234.052C186.475 232.844 185.723 232.011 184.541 231.97ZM189.53 237.842L188.634 237.81L188.853 231.522L189.633 231.549L189.725 232.645C190.169 231.854 191.016 231.429 191.925 231.46C193.653 231.521 194.332 232.572 194.277 234.157L194.142 238.003L193.246 237.971L193.373 234.321C193.425 232.853 192.78 232.31 191.741 232.273C190.455 232.229 189.694 233.139 189.645 234.555L189.53 237.842ZM198.392 238.307C196.56 238.243 195.531 236.802 195.597 234.919C195.663 233.022 196.791 231.63 198.662 231.696C199.701 231.732 200.517 232.216 200.927 233.141L201.08 228.762L201.976 228.794L201.646 238.265L200.866 238.238L200.82 236.948C200.344 237.907 199.445 238.344 198.392 238.307ZM198.577 237.494C199.954 237.542 200.796 236.531 200.846 235.076C200.897 233.634 200.128 232.553 198.751 232.505C197.387 232.458 196.557 233.482 196.507 234.924C196.456 236.38 197.213 237.447 198.577 237.494ZM206.148 238.578C204.303 238.514 203.115 237.145 203.184 235.171C203.253 233.209 204.521 231.9 206.314 231.963C208.016 232.022 209.13 233.271 209.068 235.051L209.053 235.493L204.051 235.318C204.062 236.853 204.837 237.765 206.188 237.812C207.214 237.848 207.892 237.429 208.155 236.606L209.013 236.636C208.629 237.949 207.629 238.63 206.148 238.578ZM206.287 232.729C205.105 232.688 204.298 233.44 204.099 234.669L208.179 234.812C208.221 233.603 207.47 232.771 206.287 232.729ZM211.277 238.601L210.38 238.57L210.6 232.282L211.379 232.309L211.471 233.405C211.915 232.614 212.762 232.188 213.672 232.22C215.4 232.28 216.079 233.331 216.023 234.916L215.889 238.762L214.992 238.731L215.12 235.08C215.171 233.612 214.527 233.069 213.487 233.033C212.201 232.988 211.441 233.898 211.392 235.314L211.277 238.601ZM219.118 238.875L218.234 238.844L218.428 233.309L217.167 233.265L217.194 232.512L218.454 232.556L218.523 230.568L219.407 230.599L219.337 232.587L220.598 232.631L220.571 233.384L219.311 233.34L219.118 238.875ZM224.114 239.205C222.269 239.141 221.081 237.773 221.15 235.798C221.219 233.836 222.487 232.528 224.28 232.59C225.982 232.65 227.096 233.898 227.034 235.678L227.018 236.12L222.016 235.945C222.028 237.481 222.802 238.392 224.154 238.439C225.18 238.475 225.858 238.057 226.121 237.233L226.978 237.263C226.594 238.577 225.595 239.257 224.114 239.205ZM224.253 233.357C223.071 233.315 222.264 234.068 222.065 235.297L226.145 235.439C226.187 234.231 225.435 233.398 224.253 233.357ZM227.875 237.412L228.732 237.442C228.707 238.169 229.237 238.643 230.12 238.674C231.095 238.708 231.681 238.312 231.704 237.636C231.723 237.117 231.473 236.809 230.739 236.601L229.67 236.291C228.588 235.98 228.076 235.389 228.106 234.532C228.144 233.428 229.091 232.758 230.442 232.805C231.767 232.852 232.6 233.609 232.598 234.78L231.727 234.749C231.727 234.021 231.235 233.575 230.39 233.545C229.507 233.514 229 233.874 228.977 234.549C228.96 235.03 229.286 235.38 229.968 235.573L231.037 235.883C232.119 236.194 232.595 236.718 232.563 237.627C232.524 238.758 231.537 239.465 230.107 239.415C228.691 239.365 227.834 238.581 227.875 237.412Z" fill="#6B6B6B"/>
<path d="M114.459 243.785L119.456 243.96L119.428 244.769L114.431 244.595L114.459 243.785ZM114.386 245.884L119.383 246.058L119.355 246.868L114.358 246.693L114.386 245.884ZM123.164 247.111L124.064 247.142C124.046 247.642 124.416 247.955 125.035 247.977C125.695 248 126.084 247.743 126.1 247.293C126.111 246.964 125.958 246.758 125.453 246.611L124.601 246.381C123.739 246.14 123.344 245.696 123.369 244.977C123.4 244.077 124.18 243.534 125.259 243.572C126.329 243.609 127.007 244.233 126.995 245.163L126.095 245.132C126.092 244.642 125.773 244.32 125.204 244.3C124.614 244.28 124.275 244.528 124.26 244.978C124.248 245.308 124.48 245.536 124.956 245.673L125.808 245.912C126.63 246.141 127.027 246.535 127.001 247.265C126.969 248.194 126.149 248.756 124.99 248.716C123.84 248.675 123.132 248.04 123.164 247.111ZM130.099 248.894C128.66 248.844 127.707 247.77 127.76 246.251C127.813 244.722 128.819 243.696 130.239 243.746C131.628 243.794 132.504 244.785 132.453 246.235L132.441 246.584L128.663 246.462C128.697 247.494 129.217 248.083 130.146 248.115C130.876 248.141 131.366 247.858 131.545 247.304L132.425 247.334C132.148 248.375 131.308 248.936 130.099 248.894ZM130.211 244.535C129.392 244.507 128.855 244.978 128.705 245.834L131.523 245.932C131.551 245.122 131.041 244.564 130.211 244.535ZM134.35 248.922L133.411 248.89L133.582 244.003L134.421 244.032L134.489 244.675C134.755 244.224 135.285 243.922 135.975 243.946C136.735 243.973 137.261 244.371 137.49 244.99C137.741 244.388 138.344 244.029 139.103 244.055C140.222 244.094 140.878 244.818 140.838 245.947L140.726 249.145L139.807 249.113L139.911 246.145C139.938 245.375 139.523 244.921 138.864 244.897C138.154 244.873 137.667 245.356 137.64 246.136L137.538 249.034L136.609 249.001L136.713 246.023C136.74 245.254 136.335 244.819 135.675 244.796C134.966 244.771 134.479 245.245 134.452 246.024L134.35 248.922ZM142.724 249.335C142.334 249.321 142.016 248.99 142.029 248.61C142.043 248.22 142.384 247.912 142.773 247.926C143.153 247.939 143.472 248.27 143.458 248.66C143.445 249.04 143.104 249.348 142.724 249.335ZM148.948 249.552C147.899 249.516 147.3 248.904 147.331 248.015C147.362 247.115 148.052 246.579 149.204 246.529L150.747 246.463L150.752 246.323C150.781 245.504 150.301 245.197 149.642 245.174C148.852 245.146 148.39 245.48 148.37 246.07L147.55 246.041C147.586 245.022 148.449 244.382 149.708 244.426C150.917 244.468 151.714 245.136 151.668 246.455L151.561 249.523L150.761 249.496L150.689 248.702C150.42 249.253 149.738 249.58 148.948 249.552ZM149.244 248.832C150.133 248.863 150.693 248.302 150.725 247.383L150.734 247.123L149.481 247.179C148.649 247.23 148.298 247.538 148.281 248.018C148.263 248.538 148.634 248.811 149.244 248.832ZM153.801 249.602L152.862 249.569L153.033 244.682L153.882 244.711L153.956 245.465C154.285 244.916 154.916 244.608 155.606 244.632C156.895 244.677 157.457 245.487 157.414 246.736L157.309 249.724L156.37 249.691L156.467 246.913C156.501 245.924 156.056 245.508 155.336 245.483C154.457 245.452 153.925 246.064 153.892 247.013L153.801 249.602ZM159.99 249.818L159.05 249.785L159.193 245.687L158.234 245.654L158.261 244.864L159.221 244.898L159.274 243.369L160.214 243.402L160.16 244.931L161.12 244.964L161.092 245.754L160.133 245.72L159.99 249.818ZM163.848 250.073C162.409 250.022 161.456 248.948 161.509 247.429C161.562 245.9 162.568 244.875 163.988 244.924C165.377 244.973 166.253 245.964 166.202 247.413L166.19 247.763L162.412 247.641C162.446 248.673 162.966 249.261 163.895 249.294C164.625 249.319 165.115 249.036 165.294 248.482L166.174 248.513C165.897 249.554 165.057 250.115 163.848 250.073ZM163.96 245.714C163.14 245.685 162.604 246.157 162.454 247.012L165.272 247.11C165.3 246.301 164.789 245.743 163.96 245.714ZM170.13 245.239L170.1 246.098L169.68 246.084C168.791 246.053 168.223 246.573 168.19 247.513L168.099 250.101L167.16 250.068L167.33 245.191L168.21 245.222L168.244 245.963C168.461 245.461 168.963 245.138 169.633 245.161C169.803 245.167 169.942 245.192 170.13 245.239ZM171.51 244.166C171.17 244.155 170.9 243.865 170.912 243.525C170.924 243.175 171.214 242.915 171.553 242.927C171.893 242.939 172.164 243.219 172.151 243.568C172.14 243.908 171.85 244.178 171.51 244.166ZM170.839 250.197L171.01 245.31L171.949 245.342L171.779 250.229L170.839 250.197ZM172.908 247.817C172.961 246.308 174.077 245.287 175.546 245.338C177.006 245.389 178.048 246.486 177.995 247.995C177.942 249.504 176.826 250.526 175.367 250.475C173.898 250.424 172.856 249.326 172.908 247.817ZM173.858 247.851C173.822 248.87 174.447 249.602 175.396 249.635C176.336 249.668 177.02 248.982 177.056 247.962C177.091 246.943 176.457 246.21 175.517 246.177C174.568 246.144 173.893 246.831 173.858 247.851ZM181.92 245.651L181.89 246.51L181.47 246.495C180.581 246.464 180.012 246.985 179.979 247.924L179.889 250.513L178.95 250.48L179.12 245.603L179.999 245.634L180.033 246.375C180.251 245.872 180.753 245.55 181.422 245.573C181.592 245.579 181.731 245.604 181.92 245.651Z" fill="#767676"/>
<rect x="40.5312" y="274.911" width="444.337" height="89.9948" rx="16" transform="rotate(2 40.5312 274.911)" fill="white" fill-opacity="0.6"/>
<g clip-path="url(#clip8_32141_3132)">
<g clip-path="url(#clip9_32141_3132)">
<path d="M98.9242 321.975C99.3868 308.728 89.0232 297.615 75.7764 297.152C62.5296 296.689 51.416 307.053 50.9534 320.3C50.4908 333.547 60.8545 344.66 74.1012 345.123C87.348 345.585 98.4616 335.222 98.9242 321.975Z" fill="#3B82F6" fill-opacity="0.1"/>
<path d="M83.8281 324.45C83.8095 324.98 83.5812 325.481 83.1932 325.843C82.8054 326.205 82.2896 326.398 81.7594 326.379L69.7667 325.96L65.6296 329.818L66.188 313.828C66.2065 313.298 66.4349 312.797 66.8229 312.435C67.2107 312.073 67.7264 311.88 68.2566 311.899L82.248 312.387C82.7782 312.406 83.2792 312.634 83.6409 313.022C84.0027 313.41 84.1956 313.926 84.177 314.456L83.8281 324.45Z" stroke="#3B82F6" stroke-width="1.5" stroke-linecap="round" stroke-linejoin="round"/>
</g>
</g>
<path d="M116.849 315.633L114.892 315.564L114.956 313.739L119.222 310.08L112.539 309.847L112.625 307.362L122.827 307.718L122.749 309.961L118.709 313.43C121.155 314 123.005 315.87 122.906 318.706C122.79 322.004 120.145 324.003 116.891 323.889C113.747 323.779 111.374 321.759 111.495 318.285L114.266 318.382C114.201 320.229 115.308 321.324 117.023 321.384C118.782 321.446 119.987 320.343 120.049 318.562C120.106 316.935 119.092 315.711 116.849 315.633ZM129.785 324.317C126.422 324.2 124.276 321.968 124.39 318.714L127.182 318.811C127.118 320.636 128.158 321.751 129.939 321.813C131.83 321.879 133.082 320.69 133.15 318.733C133.216 316.864 132.139 315.55 130.204 315.483C128.973 315.44 127.83 316.016 127.229 316.832L124.763 316.217L127.036 307.865L135.413 308.158L135.322 310.752L128.968 310.53L127.994 313.842C128.781 313.364 129.759 313.112 130.858 313.15C134.068 313.262 136.125 315.513 136.014 318.679C135.893 322.153 133.369 324.442 129.785 324.317Z" fill="#161616"/>
<path d="M112.315 341.454L111.379 341.422L111.704 332.119L112.653 332.153L117.501 340.075L117.772 332.331L118.694 332.364L118.369 341.666L117.447 341.634L112.585 333.711L112.315 341.454ZM120.115 338.579C120.182 336.656 121.581 335.313 123.426 335.378C125.271 335.442 126.574 336.879 126.507 338.802C126.44 340.712 125.04 342.055 123.195 341.991C121.351 341.926 120.048 340.489 120.115 338.579ZM121.024 338.598C120.973 340.079 121.872 341.138 123.224 341.185C124.562 341.232 125.546 340.238 125.598 338.757C125.649 337.302 124.736 336.23 123.398 336.183C122.047 336.136 121.075 337.143 121.024 338.598ZM129.306 342.048L126.953 335.67L127.914 335.703L129.397 339.814C129.55 340.274 129.703 340.709 129.806 341.129C129.938 340.704 130.121 340.294 130.319 339.846L132.111 335.85L133.033 335.882L130.202 342.079L129.306 342.048ZM135.391 342.416C134.053 342.37 133.287 341.588 133.326 340.484C133.366 339.328 134.275 338.631 135.747 338.565L137.832 338.469L137.839 338.261C137.882 337.027 137.155 336.611 136.233 336.579C135.141 336.541 134.474 337.012 134.445 337.857L133.626 337.828C133.671 336.555 134.739 335.773 136.285 335.827C137.74 335.877 138.78 336.642 138.722 338.305L138.58 342.372L137.826 342.345L137.748 341.237C137.33 342.016 136.457 342.454 135.391 342.416ZM135.625 341.696C136.95 341.742 137.749 340.847 137.796 339.483L137.808 339.145L135.945 339.223C134.759 339.285 134.26 339.788 134.236 340.49C134.209 341.256 134.767 341.666 135.625 341.696ZM139.908 340.649L140.765 340.679C140.74 341.406 141.27 341.88 142.153 341.911C143.127 341.945 143.714 341.549 143.737 340.874C143.755 340.354 143.506 340.046 142.772 339.838L141.703 339.528C140.621 339.217 140.108 338.627 140.138 337.769C140.177 336.665 141.124 335.996 142.475 336.043C143.8 336.089 144.632 336.847 144.63 338.017L143.76 337.987C143.759 337.258 143.268 336.812 142.423 336.782C141.54 336.752 141.033 337.111 141.009 337.787C140.993 338.267 141.319 338.617 142.001 338.81L143.07 339.12C144.152 339.431 144.628 339.955 144.596 340.865C144.557 341.995 143.569 342.702 142.14 342.652C140.724 342.603 139.867 341.818 139.908 340.649ZM150.512 342.788L149.615 342.757L149.835 336.469L150.614 336.496L150.687 337.396C151.022 336.744 151.738 336.366 152.621 336.397C153.608 336.432 154.331 336.977 154.601 337.806C154.916 336.997 155.7 336.505 156.714 336.54C158.078 336.588 158.943 337.502 158.893 338.957L158.749 343.076L157.878 343.046L158.016 339.109C158.053 338.031 157.478 337.373 156.517 337.34C155.464 337.303 154.813 338.074 154.779 339.048L154.643 342.933L153.76 342.902L153.898 338.952C153.935 337.887 153.346 337.242 152.398 337.209C151.345 337.172 150.681 337.929 150.648 338.891L150.512 342.788ZM163.184 343.387C161.339 343.323 160.151 341.954 160.22 339.979C160.289 338.018 161.557 336.709 163.35 336.772C165.052 336.831 166.166 338.08 166.104 339.86L166.088 340.301L161.086 340.127C161.098 341.662 161.873 342.574 163.224 342.621C164.25 342.657 164.928 342.238 165.191 341.415L166.048 341.445C165.664 342.758 164.665 343.439 163.184 343.387ZM163.323 337.538C162.141 337.497 161.334 338.249 161.135 339.478L165.215 339.621C165.257 338.412 164.505 337.58 163.323 337.538ZM168.312 343.41L167.416 343.379L167.636 337.09L168.415 337.118L168.507 338.214C168.951 337.423 169.798 336.997 170.708 337.029C172.436 337.089 173.114 338.14 173.059 339.725L172.925 343.571L172.028 343.54L172.156 339.889C172.207 338.421 171.562 337.878 170.523 337.842C169.237 337.797 168.477 338.707 168.427 340.123L168.312 343.41ZM174.164 341.845L175.022 341.875C174.996 342.603 175.526 343.077 176.41 343.107C177.384 343.141 177.97 342.746 177.994 342.07C178.012 341.55 177.762 341.242 177.028 341.035L175.959 340.724C174.878 340.413 174.365 339.823 174.395 338.966C174.433 337.861 175.38 337.192 176.732 337.239C178.057 337.285 178.889 338.043 178.887 339.213L178.016 339.183C178.016 338.455 177.524 338.008 176.68 337.979C175.796 337.948 175.289 338.307 175.266 338.983C175.249 339.464 175.575 339.813 176.258 340.006L177.326 340.317C178.408 340.628 178.884 341.152 178.853 342.061C178.813 343.191 177.826 343.898 176.397 343.848C174.981 343.799 174.123 343.015 174.164 341.845ZM182.069 344.046C180.731 344 179.965 343.218 180.003 342.114C180.043 340.958 180.952 340.261 182.425 340.195L184.509 340.099L184.516 339.891C184.56 338.657 183.833 338.241 182.91 338.209C181.819 338.171 181.152 338.642 181.122 339.487L180.304 339.458C180.348 338.185 181.416 337.403 182.962 337.457C184.418 337.507 185.458 338.272 185.399 339.935L185.257 344.002L184.504 343.975L184.426 342.867C184.008 343.646 183.134 344.084 182.069 344.046ZM182.302 343.326C183.627 343.372 184.426 342.477 184.474 341.113L184.486 340.775L182.623 340.853C181.437 340.915 180.938 341.418 180.913 342.12C180.887 342.886 181.445 343.296 182.302 343.326ZM186.744 340.724C186.804 339.009 187.957 337.631 189.802 337.695C190.894 337.734 191.707 338.269 192.078 339.206L192.213 337.949L192.992 337.976L192.78 344.069C192.714 345.94 191.476 347.12 189.632 347.055C188.021 346.999 186.922 346.05 186.728 344.521L187.625 344.553C187.784 345.573 188.543 346.198 189.673 346.237C190.959 346.282 191.847 345.442 191.893 344.129L191.945 342.635C191.486 343.504 190.597 343.993 189.519 343.955C187.726 343.893 186.684 342.439 186.744 340.724ZM187.641 340.742C187.596 342.028 188.351 343.108 189.677 343.154C191.041 343.202 191.881 342.243 191.928 340.892C191.975 339.553 191.23 338.539 189.853 338.491C188.501 338.444 187.685 339.469 187.641 340.742ZM197.275 344.577C195.431 344.513 194.243 343.145 194.312 341.17C194.38 339.208 195.649 337.9 197.441 337.962C199.143 338.022 200.257 339.27 200.195 341.05L200.18 341.492L195.178 341.317C195.189 342.853 195.964 343.764 197.315 343.811C198.342 343.847 199.02 343.429 199.282 342.605L200.14 342.635C199.756 343.949 198.757 344.629 197.275 344.577ZM197.415 338.729C196.232 338.687 195.426 339.44 195.227 340.669L199.306 340.811C199.348 339.603 198.597 338.77 197.415 338.729ZM202.404 344.6L201.507 344.569L201.727 338.281L202.507 338.308L202.598 339.404C203.042 338.613 203.89 338.187 204.799 338.219C206.527 338.279 207.206 339.331 207.15 340.916L207.016 344.762L206.12 344.73L206.247 341.079C206.298 339.611 205.654 339.069 204.615 339.032C203.328 338.987 202.568 339.897 202.519 341.313L202.404 344.6ZM208.256 343.036L209.113 343.066C209.088 343.793 209.618 344.267 210.501 344.298C211.475 344.332 212.062 343.936 212.085 343.261C212.103 342.741 211.854 342.433 211.12 342.225L210.051 341.915C208.969 341.604 208.456 341.013 208.486 340.156C208.525 339.052 209.472 338.382 210.823 338.43C212.148 338.476 212.98 339.233 212.978 340.404L212.108 340.374C212.107 339.645 211.616 339.199 210.771 339.169C209.888 339.138 209.381 339.498 209.357 340.173C209.341 340.654 209.667 341.004 210.349 341.197L211.418 341.507C212.5 341.818 212.976 342.342 212.944 343.251C212.905 344.382 211.917 345.089 210.488 345.039C209.072 344.989 208.215 344.205 208.256 343.036Z" fill="#6B6B6B"/>
</g>
<path d="M55.629 402.51L52.3801 392.451L53.6953 392.497L56.4724 401.223L59.8375 392.711L61.1527 392.757L57.21 402.565L55.629 402.51ZM64.1153 402.975C63.4157 402.95 62.8149 402.771 62.313 402.435C61.8204 402.101 61.4443 401.639 61.1846 401.051C60.9346 400.454 60.8233 399.764 60.8507 398.98C60.8781 398.197 61.0371 397.521 61.3278 396.952C61.6278 396.383 62.0305 395.949 62.536 395.649C63.0511 395.34 63.6491 395.198 64.33 395.221C64.9736 395.244 65.5372 395.418 66.0208 395.743C66.5048 396.059 66.8719 396.51 67.1222 397.098C67.3818 397.686 67.4972 398.395 67.4682 399.225L67.456 399.575L62.0692 399.387C62.0882 400.182 62.2772 400.786 62.6363 401.2C63.0047 401.614 63.5108 401.833 64.1544 401.855C64.6394 401.872 65.0397 401.774 65.3554 401.561C65.6807 401.339 65.9104 401.043 66.0447 400.675L67.3005 400.817C67.0815 401.472 66.6894 402.005 66.1241 402.414C65.5684 402.815 64.8988 403.002 64.1153 402.975ZM62.1054 398.352L66.2049 398.495C66.174 397.775 65.9825 397.24 65.6305 396.892C65.2878 396.544 64.8412 396.36 64.2909 396.341C63.7219 396.321 63.2447 396.482 62.8592 396.823C62.4834 397.156 62.2321 397.665 62.1054 398.352ZM68.5114 402.96L68.7704 395.545L69.8057 395.581L69.7962 397.458L69.6858 397.412C69.8012 396.781 70.0179 396.326 70.3358 396.048C70.6633 395.76 71.0883 395.626 71.6106 395.644L72.3382 395.669L72.2991 396.789L71.5855 396.764C71.2124 396.751 70.8975 396.81 70.6408 396.941C70.3937 397.063 70.2001 397.257 70.0601 397.523C69.9297 397.78 69.8574 398.113 69.843 398.524L69.6867 403.001L68.5114 402.96ZM76.4712 403.238L76.7302 395.823L77.8075 395.86L77.784 397.737L77.6181 397.675C77.7164 397.267 77.8732 396.922 78.0885 396.64C78.3134 396.349 78.5826 396.13 78.8959 395.982C79.2096 395.825 79.553 395.753 79.9261 395.766C80.5697 395.789 81.0859 395.984 81.4746 396.352C81.8726 396.721 82.1119 397.225 82.1923 397.862L81.969 397.841C82.0586 397.414 82.2064 397.06 82.4123 396.777C82.628 396.486 82.8971 396.267 83.2198 396.119C83.5425 395.972 83.909 395.905 84.3194 395.92C84.8511 395.938 85.2949 396.066 85.6509 396.302C86.0072 396.529 86.2713 396.856 86.4432 397.282C86.6151 397.709 86.6906 398.22 86.6697 398.817L86.5031 403.588L85.3278 403.547L85.4857 399.028C85.5091 398.357 85.3961 397.848 85.1467 397.503C84.8975 397.149 84.5165 396.963 84.0035 396.945C83.6583 396.933 83.3522 397.006 83.0852 397.165C82.8275 397.324 82.6232 397.56 82.4722 397.872C82.3215 398.175 82.2383 398.55 82.2227 398.998L82.0678 403.433L80.8925 403.392L81.0474 398.957C81.0706 398.295 80.972 397.773 80.7519 397.392C80.5317 397.011 80.1465 396.81 79.5961 396.791C79.251 396.779 78.9449 396.853 78.6779 397.011C78.4202 397.17 78.2112 397.406 78.0509 397.718C77.8999 398.03 77.8167 398.405 77.8014 398.844L77.6465 403.279L76.4712 403.238ZM90.1796 403.885C89.4148 403.858 88.81 403.66 88.3653 403.289C87.93 402.919 87.7234 402.417 87.7455 401.783C87.7677 401.148 87.9717 400.656 88.3575 400.305C88.7433 399.954 89.3445 399.719 90.1613 399.598L92.8088 399.2C92.8306 398.575 92.6976 398.103 92.4099 397.785C92.1315 397.467 91.6985 397.298 91.1108 397.277C90.5978 397.259 90.188 397.362 89.8813 397.585C89.575 397.798 89.3584 398.117 89.2315 398.543L87.9897 398.401C88.154 397.706 88.5095 397.154 89.0562 396.743C89.6125 396.324 90.3104 396.129 91.1499 396.158C92.1013 396.191 92.8194 396.487 93.3042 397.046C93.7894 397.595 94.0155 398.341 93.9826 399.283L93.8756 402.347C93.8697 402.515 93.8935 402.637 93.9468 402.714C94.0098 402.781 94.1113 402.817 94.2512 402.822L94.545 402.833L94.5089 403.868C94.4712 403.876 94.4104 403.879 94.3265 403.876C94.2422 403.882 94.1534 403.884 94.0602 403.88C93.7244 403.869 93.451 403.808 93.24 403.698C93.0387 403.578 92.8954 403.405 92.8099 403.178C92.7248 402.942 92.6887 402.637 92.7018 402.264L92.8407 402.297C92.7643 402.612 92.5957 402.895 92.3347 403.148C92.074 403.391 91.7546 403.58 91.3762 403.717C90.9983 403.843 90.5994 403.9 90.1796 403.885ZM90.3277 402.853C90.8221 402.871 91.2451 402.792 91.5967 402.618C91.958 402.434 92.2376 402.182 92.4356 401.862C92.6339 401.533 92.7402 401.163 92.7545 400.753L92.7731 400.221L90.3509 400.585C89.844 400.661 89.4891 400.793 89.2864 400.982C89.0933 401.162 88.9914 401.406 88.9807 401.714C88.9686 402.059 89.0804 402.334 89.3161 402.538C89.5615 402.733 89.8987 402.838 90.3277 402.853ZM95.3619 403.898L95.6209 396.482L96.7962 396.523L96.5372 403.939L95.3619 403.898ZM95.6334 395.32L95.6813 393.949L96.9126 393.992L96.8647 395.363L95.6334 395.32ZM100.916 404.26C100.254 404.237 99.6931 404.11 99.2342 403.879C98.7846 403.648 98.4358 403.342 98.1876 402.96C97.9491 402.569 97.8197 402.13 97.7993 401.643L99.0335 401.602C99.0925 402.053 99.2712 402.419 99.5695 402.7C99.8682 402.972 100.33 403.119 100.955 403.14C101.459 403.158 101.863 403.093 102.167 402.945C102.48 402.787 102.643 402.527 102.656 402.163C102.663 401.967 102.622 401.803 102.533 401.669C102.445 401.535 102.267 401.417 101.999 401.314C101.732 401.202 101.335 401.09 100.806 400.978C100.102 400.823 99.5479 400.645 99.144 400.444C98.7498 400.234 98.4689 399.986 98.3015 399.7C98.1437 399.405 98.0716 399.061 98.0853 398.67C98.1084 398.007 98.3698 397.475 98.8695 397.072C99.3695 396.66 100.067 396.469 100.963 396.501C101.569 396.522 102.073 396.652 102.476 396.89C102.888 397.119 103.205 397.42 103.425 397.791C103.655 398.154 103.8 398.552 103.86 398.983L102.626 399.024C102.579 398.761 102.484 398.529 102.342 398.328C102.2 398.118 102.009 397.952 101.771 397.832C101.532 397.702 101.245 397.631 100.91 397.62C100.378 397.601 99.9826 397.69 99.7236 397.886C99.4646 398.083 99.3296 398.339 99.3185 398.657C99.31 398.899 99.359 399.102 99.4654 399.264C99.5814 399.418 99.7682 399.55 100.026 399.662C100.284 399.764 100.631 399.86 101.066 399.95C101.817 400.107 102.399 400.286 102.813 400.488C103.226 400.689 103.512 400.928 103.67 401.204C103.829 401.48 103.901 401.814 103.887 402.206C103.871 402.663 103.727 403.05 103.455 403.368C103.192 403.676 102.838 403.907 102.394 404.059C101.959 404.212 101.466 404.279 100.916 404.26Z" fill="black"/>
<g clip-path="url(#clip10_32141_3132)">
<path d="M114.703 400.07C114.818 396.758 117.596 394.167 120.908 394.283C124.22 394.398 126.811 397.176 126.695 400.488C126.58 403.8 123.802 406.391 120.49 406.275C117.178 406.16 114.587 403.382 114.703 400.07Z" stroke="black" stroke-linecap="round" stroke-linejoin="round"/>
<path d="M118.199 400.192L123.196 400.367" stroke="black" stroke-linecap="round" stroke-linejoin="round"/>
<path d="M121.268 398.298L123.197 400.366L121.128 402.295" stroke="black" stroke-linecap="round" stroke-linejoin="round"/>
</g>
<mask id="path-34-inside-1_32141_3132" fill="white">
<path d="M41.2727 29.3023C41.6582 18.2633 50.9196 9.62695 61.9585 10.0124L481.703 24.6702C492.742 25.0557 501.378 34.3171 500.993 45.356L487.752 424.51C487.367 435.549 478.105 444.186 467.066 443.8L47.3222 429.142C36.2832 428.757 27.6469 419.495 28.0324 408.456L41.2727 29.3023Z"/>
</mask>
<path d="M61.9585 10.0124L61.8887 12.0112L481.633 26.669L481.703 24.6702L481.773 22.6715L62.0283 8.01366L61.9585 10.0124ZM500.993 45.356L498.994 45.2862L485.753 424.44L487.752 424.51L489.751 424.58L502.991 45.4258L500.993 45.356ZM467.066 443.8L467.136 441.801L47.392 427.143L47.3222 429.142L47.2524 431.141L466.997 445.799L467.066 443.8ZM28.0324 408.456L30.0311 408.526L43.2715 29.3721L41.2727 29.3023L39.2739 29.2325L26.0336 408.387L28.0324 408.456ZM47.3222 429.142L47.392 427.143C37.4569 426.797 29.6842 418.461 30.0311 408.526L28.0324 408.456L26.0336 408.387C25.6095 420.529 35.1095 430.717 47.2524 431.141L47.3222 429.142ZM487.752 424.51L485.753 424.44C485.407 434.375 477.071 442.148 467.136 441.801L467.066 443.8L466.997 445.799C479.139 446.223 489.327 436.723 489.751 424.58L487.752 424.51ZM481.703 24.6702L481.633 26.669C491.568 27.016 499.341 35.3512 498.994 45.2862L500.993 45.356L502.991 45.4258C503.415 33.283 493.915 23.0955 481.773 22.6715L481.703 24.6702ZM61.9585 10.0124L62.0283 8.01366C49.8855 7.58962 39.698 17.0896 39.2739 29.2325L41.2727 29.3023L43.2715 29.3721C43.6184 19.437 51.9537 11.6643 61.8887 12.0112L61.9585 10.0124Z" fill="white" mask="url(#path-34-inside-1_32141_3132)"/>
</g>
</g>
<defs>
<filter id="filter0_d_32141_3132" x="-0.685547" y="-0.685547" width="524.377" height="485.772" filterUnits="userSpaceOnUse" color-interpolation-filters="sRGB">
<feFlood flood-opacity="0" result="BackgroundImageFix"/>
<feColorMatrix in="SourceAlpha" type="matrix" values="0 0 0 0 0 0 0 0 0 0 0 0 0 0 0 0 0 0 127 0" result="hardAlpha"/>
<feOffset dx="-3" dy="15"/>
<feGaussianBlur stdDeviation="12.5"/>
<feComposite in2="hardAlpha" operator="out"/>
<feColorMatrix type="matrix" values="0 0 0 0 0.407843 0 0 0 0 0.388235 0 0 0 0 0.313726 0 0 0 0.15 0"/>
<feBlend mode="normal" in2="BackgroundImageFix" result="effect1_dropShadow_32141_3132"/>
<feBlend mode="normal" in="SourceGraphic" in2="effect1_dropShadow_32141_3132" result="shape"/>
</filter>
<clipPath id="clip0_32141_3132">
<rect x="41.9707" y="9.31445" width="460" height="419.975" rx="20" transform="rotate(2 41.9707 9.31445)" fill="white"/>
</clipPath>
<clipPath id="clip1_32141_3132">
<rect width="460" height="285.984" fill="white" transform="translate(39.5449 78.7676) rotate(2)"/>
</clipPath>
<clipPath id="clip2_32141_3132">
<rect width="48" height="48" fill="white" transform="translate(58.6309 100.444) rotate(2)"/>
</clipPath>
<clipPath id="clip3_32141_3132">
<rect width="48" height="48" fill="white" transform="translate(58.6309 100.444) rotate(2)"/>
</clipPath>
<clipPath id="clip4_32141_3132">
<rect width="78.9982" height="36.0017" fill="white" transform="translate(400.084 103.111) rotate(2)"/>
</clipPath>
<clipPath id="clip5_32141_3132">
<rect width="48" height="48" fill="white" transform="translate(55.2109 198.38) rotate(2)"/>
</clipPath>
<clipPath id="clip6_32141_3132">
<rect width="48" height="48" fill="white" transform="translate(55.2109 198.38) rotate(2)"/>
</clipPath>
<clipPath id="clip7_32141_3132">
<rect width="48" height="22.0035" fill="white" transform="translate(427.387 209.123) rotate(2)"/>
</clipPath>
<clipPath id="clip8_32141_3132">
<rect width="48" height="48" fill="white" transform="translate(51.791 296.314) rotate(2)"/>
</clipPath>
<clipPath id="clip9_32141_3132">
<rect width="48" height="48" fill="white" transform="translate(51.791 296.314) rotate(2)"/>
</clipPath>
<clipPath id="clip10_32141_3132">
<rect width="16" height="16" fill="white" transform="translate(112.982 392.005) rotate(2)"/>
</clipPath>
</defs>
</svg>
