<svg width="1151" height="1090" viewBox="0 0 1151 1090" fill="none" xmlns="http://www.w3.org/2000/svg">
<foreignObject x="-3.15496" y="-3.15495" width="1157.13" height="1095.6"><div xmlns="http://www.w3.org/1999/xhtml" style="backdrop-filter:blur(7.74px);clip-path:url(#bgblur_0_32033_911_clip_path);height:100%;width:100%"></div></foreignObject><g filter="url(#filter0_d_32033_911)" data-figma-bg-blur-radius="15.4842">
<rect x="83.5566" y="77.8955" width="956.924" height="891.894" rx="61.9369" transform="rotate(-3 83.5566 77.8955)" fill="white" fill-opacity="0.4" shape-rendering="crispEdges"/>
<path d="M168.502 167.594L150.869 168.518L151.358 177.852L171.453 176.799L171.795 183.325L144.288 184.766L142.385 148.467L169.006 147.072L169.343 153.499L150.135 154.506L150.539 162.214L168.171 161.29L168.502 167.594ZM173.098 156.34L180.978 155.927L187.606 175.434L192.282 155.334L199.817 154.94L191.546 182.29L184.133 182.678L173.098 156.34ZM226.37 156.956C228.785 159.677 230.094 162.975 230.297 166.85C230.503 170.79 229.547 174.223 227.429 177.149C225.309 180.059 221.943 181.635 217.33 181.877C212.716 182.119 209.204 180.903 206.792 178.231C204.379 175.542 203.069 172.228 202.863 168.288C202.66 164.413 203.617 160.996 205.733 158.037C207.85 155.078 211.215 153.478 215.829 153.236C220.442 152.994 223.956 154.234 226.37 156.956ZM216.115 159.172C214.063 159.28 212.517 160.094 211.477 161.613C210.453 163.116 210.011 165.213 210.152 167.906C210.293 170.598 210.952 172.646 212.129 174.05C213.322 175.452 214.944 176.1 216.997 175.992C219.049 175.885 220.587 175.072 221.61 173.553C222.633 172.034 223.075 169.928 222.933 167.236C222.792 164.543 222.134 162.503 220.958 161.116C219.782 159.713 218.167 159.065 216.115 159.172ZM234.291 143.65L241.31 143.282L243.212 179.582L236.194 179.95L234.291 143.65ZM267.098 174.527C267.037 174.613 266.886 174.868 266.645 175.292C266.403 175.716 266.11 176.094 265.766 176.424C264.717 177.467 263.685 178.196 262.67 178.612C261.671 179.026 260.482 179.27 259.103 179.342C255.13 179.55 252.379 178.262 250.85 175.478C249.996 173.942 249.488 171.639 249.327 168.569L248.479 152.389L255.67 152.012L256.518 168.192C256.598 169.719 256.839 170.859 257.241 171.611C257.952 172.94 259.244 173.556 261.116 173.458C263.513 173.332 265.104 172.278 265.889 170.294C266.293 169.219 266.45 167.82 266.36 166.096L265.595 151.492L272.712 151.119L274.119 177.962L267.297 178.32L267.098 174.527ZM290.771 186.128C291.756 186.076 292.45 185.826 292.855 185.376C293.26 184.943 293.451 184.497 293.427 184.038C293.391 183.348 293.127 182.876 292.637 182.622C292.146 182.368 291.63 182.255 291.088 182.283C290.776 182.3 290.457 182.349 290.132 182.432C289.808 182.531 289.445 182.658 289.041 182.81L287.931 181.881L290.175 178.059C287.088 178.221 284.46 177.075 282.29 174.62C280.12 172.166 278.928 168.894 278.714 164.806C278.472 160.193 279.409 156.547 281.524 153.868C283.639 151.189 286.674 149.745 290.631 149.538C293.997 149.362 296.786 149.973 299 151.371C301.23 152.769 302.642 155.37 303.236 159.175L296.045 159.552C295.861 158.557 295.478 157.672 294.894 156.896C294.049 155.854 292.797 155.376 291.139 155.463C288.775 155.587 287.219 156.845 286.472 159.239C286.078 160.51 285.935 162.181 286.043 164.249C286.147 166.219 286.46 167.792 286.982 168.966C287.936 171.155 289.571 172.189 291.886 172.068C293.528 171.981 294.67 171.477 295.313 170.554C295.956 169.632 296.315 168.461 296.388 167.041L303.555 166.665C303.502 168.808 302.837 170.868 301.557 172.845C299.518 176.03 296.594 177.723 292.785 177.922L291.354 180.294C291.89 180.151 292.271 180.048 292.498 179.987C292.727 179.942 292.972 179.913 293.235 179.899C294.564 179.829 295.64 180.094 296.462 180.693C297.284 181.308 297.727 182.223 297.791 183.438C297.87 184.949 297.317 186.171 296.131 187.106C294.946 188.057 293.385 188.583 291.448 188.685C290.611 188.729 289.592 188.609 288.392 188.327C287.841 188.191 287.064 187.968 286.06 187.659L286.885 185.492C287.835 185.722 288.485 185.869 288.834 185.933C289.633 186.088 290.278 186.153 290.771 186.128ZM308.745 152.145C310.476 149.683 313.599 148.334 318.114 148.098C321.053 147.944 323.694 148.39 326.037 149.436C328.38 150.482 329.637 152.622 329.806 155.856L330.451 168.17C330.496 169.023 330.567 170.057 330.663 171.27C330.761 172.187 330.933 172.803 331.18 173.12C331.427 173.436 331.786 173.689 332.257 173.878L332.311 174.912L324.677 175.313C324.435 174.782 324.261 174.281 324.154 173.809C324.047 173.337 323.953 172.799 323.871 172.194C322.958 173.295 321.888 174.249 320.663 175.054C319.198 176.003 317.513 176.528 315.609 176.627C313.179 176.755 311.132 176.171 309.467 174.875C307.818 173.562 306.927 171.633 306.793 169.088C306.62 165.789 307.767 163.333 310.235 161.722C311.588 160.845 313.61 160.162 316.301 159.676L318.674 159.255C319.963 159.023 320.88 158.769 321.425 158.493C322.404 158.014 322.87 157.323 322.823 156.42C322.765 155.32 322.339 154.585 321.546 154.215C320.769 153.828 319.641 153.673 318.164 153.75C316.505 153.837 315.353 154.309 314.706 155.166C314.246 155.799 313.96 156.637 313.85 157.68L307.078 158.035C307.103 155.68 307.659 153.716 308.745 152.145ZM314.954 170.735C315.64 171.242 316.458 171.471 317.41 171.421C318.921 171.342 320.285 170.826 321.503 169.873C322.737 168.92 323.317 167.268 323.243 164.917L323.106 162.307C322.678 162.609 322.238 162.863 321.788 163.067C321.353 163.255 320.746 163.443 319.966 163.632L318.405 164.01C316.941 164.35 315.899 164.726 315.278 165.137C314.228 165.834 313.739 166.856 313.809 168.202C313.872 169.401 314.254 170.245 314.954 170.735ZM321.887 144.221C321.378 144.247 320.649 144.162 319.7 143.965C319.152 143.862 318.627 143.741 318.126 143.603L316.096 143.042C315.812 142.959 315.537 142.907 315.273 142.888C315.008 142.853 314.744 142.842 314.481 142.855C313.857 142.888 313.358 143.095 312.983 143.477C312.608 143.876 312.356 144.407 312.227 145.073L309.025 145.24C309.298 143.53 309.699 142.225 310.228 141.325C311.197 139.71 312.715 138.849 314.784 138.74C315.227 138.717 315.665 138.744 316.097 138.82C316.529 138.896 316.896 138.984 317.197 139.083L319.557 139.824C320.259 140.017 320.718 140.141 320.935 140.196C321.152 140.25 321.392 140.271 321.654 140.257C322.442 140.216 322.982 139.982 323.272 139.555C323.578 139.111 323.79 138.598 323.908 138.015L327.183 137.844C326.978 139.583 326.462 141.059 325.637 142.271C324.828 143.482 323.578 144.132 321.887 144.221ZM358.221 150.046C360.635 152.767 361.944 156.065 362.147 159.94C362.354 163.88 361.398 167.313 359.279 170.239C357.16 173.149 353.793 174.725 349.18 174.967C344.567 175.209 341.054 173.993 338.642 171.321C336.229 168.632 334.92 165.318 334.713 161.378C334.51 157.503 335.467 154.086 337.584 151.127C339.701 148.168 343.066 146.568 347.679 146.326C352.292 146.084 355.806 147.324 358.221 150.046ZM347.966 152.262C345.913 152.37 344.367 153.184 343.327 154.703C342.303 156.206 341.862 158.303 342.003 160.996C342.144 163.688 342.803 165.736 343.979 167.14C345.172 168.542 346.795 169.19 348.847 169.082C350.899 168.975 352.437 168.162 353.46 166.643C354.484 165.124 354.925 163.018 354.784 160.326C354.643 157.633 353.984 155.593 352.809 154.206C351.632 152.803 350.018 152.155 347.966 152.262Z" fill="#161616"/>
<g clip-path="url(#clip1_32033_911)">
<g clip-path="url(#clip2_32033_911)">
<path d="M993.139 123.256C991.679 95.4033 967.917 74.0076 940.064 75.4673C912.21 76.927 890.814 100.689 892.274 128.542C893.734 156.395 917.496 177.79 945.35 176.331C973.203 174.871 994.599 151.109 993.139 123.256Z" fill="white" fill-opacity="0.6"/>
<path d="M934.74 111.868L949.905 125.523L936.251 140.688" stroke="#333333" stroke-width="4.32889" stroke-linecap="round" stroke-linejoin="round"/>
</g>
</g>
<rect x="115.562" y="244.624" width="910.45" height="706.092" rx="43.3558" transform="rotate(-3 115.562 244.624)" fill="white" fill-opacity="0.6"/>
<g clip-path="url(#clip3_32033_911)">
<g clip-path="url(#clip4_32033_911)">
<g clip-path="url(#clip5_32033_911)">
<path d="M261.51 781.076L966.941 744.106" stroke="black" stroke-opacity="0.15" stroke-width="2.95069" stroke-dasharray="8.86 8.86"/>
<path d="M254.104 639.633L959.535 602.663" stroke="black" stroke-opacity="0.15" stroke-width="2.95069" stroke-dasharray="8.86 8.86"/>
<path d="M246.686 498.194L952.117 461.224" stroke="black" stroke-opacity="0.15" stroke-width="2.95069" stroke-dasharray="8.86 8.86"/>
<path d="M236.801 309.604L942.232 272.634" stroke="black" stroke-opacity="0.15" stroke-width="2.95069" stroke-dasharray="8.86 8.86"/>
<path d="M307.348 305.909L332.057 777.385" stroke="black" stroke-opacity="0.15" stroke-width="2.95069" stroke-dasharray="8.86 8.86"/>
<path d="M448.43 298.514L473.139 769.989" stroke="black" stroke-opacity="0.15" stroke-width="2.95069" stroke-dasharray="8.86 8.86"/>
<path d="M589.523 291.117L614.232 762.593" stroke="black" stroke-opacity="0.15" stroke-width="2.95069" stroke-dasharray="8.86 8.86"/>
<path d="M730.602 283.725L755.311 755.2" stroke="black" stroke-opacity="0.15" stroke-width="2.95069" stroke-dasharray="8.86 8.86"/>
<path d="M942.236 272.631L966.945 744.106" stroke="black" stroke-opacity="0.15" stroke-width="2.95069" stroke-dasharray="8.86 8.86"/>
<path d="M236.801 309.604L261.51 781.08" stroke="black" stroke-opacity="0.15" stroke-width="2.95069" stroke-dasharray="8.86 8.86"/>
</g>
</g>
<g clip-path="url(#clip6_32033_911)">
<g clip-path="url(#clip7_32033_911)">
<path d="M257.201 639.482C309.249 707.669 361.296 775.857 409.639 773.324C433.811 772.057 456.334 739.357 477.21 675.227C498.088 611.101 505.785 295.516 529.955 294.249C554.127 292.982 585.71 433.158 609.884 431.891C634.052 430.624 655.752 382.21 679.926 380.943C704.094 379.677 728.265 378.41 752.439 377.143C776.607 375.877 802.013 398.183 827.423 420.49C852.826 442.797 880.706 512.251 904.877 510.984C929.045 509.718 953.219 508.451 977.39 507.184" stroke="#5900FF" stroke-width="5.90133"/>
<path d="M254.73 592.334C306.779 660.523 358.825 728.711 407.168 726.177C431.34 724.91 455.511 723.644 479.681 722.377C503.853 721.11 505.785 295.516 529.955 294.249C554.127 292.982 595.594 621.747 619.768 620.48C643.936 619.214 658.223 429.357 682.397 428.09C706.565 426.824 745.561 708.443 769.735 707.176C793.903 705.909 814.78 641.779 837.306 609.079C859.827 576.38 881.942 535.825 904.877 510.984C927.81 486.144 951.366 473.091 974.919 460.037" stroke="#FF6B6B" stroke-width="5.90133"/>
<path d="M252.255 545.186C305.539 636.947 358.821 728.709 407.164 726.176C431.336 724.909 451.388 645.063 472.264 580.933C493.142 516.804 508.252 342.662 532.422 341.396C556.593 340.129 585.706 433.157 609.88 431.89C634.048 430.623 658.219 429.356 682.393 428.09C706.561 426.823 730.732 425.556 754.906 424.289C779.074 423.023 803.245 421.756 827.419 420.489C851.586 419.222 878.231 465.103 902.402 463.836C926.57 462.57 950.744 461.303 974.915 460.036" stroke="#00C49F" stroke-width="5.90133"/>
<path d="M252.254 545.184C275.189 520.344 298.126 495.503 322.296 494.236C346.466 492.97 385.464 774.588 409.635 773.321C433.807 772.054 443.975 503.618 467.322 486.636C514.017 452.67 562.908 460.615 609.88 431.888C633.361 417.526 655.748 382.208 679.922 380.941C704.09 379.674 730.731 425.555 754.906 424.288C779.073 423.021 803.244 421.754 827.418 420.488C851.586 419.221 880.702 512.248 904.873 510.982C929.041 509.715 951.979 484.875 974.915 460.034" stroke="#CD995B" stroke-width="5.90133"/>
<path d="M257.201 639.482C281.371 638.215 305.543 636.948 329.713 635.681C353.883 634.415 382.998 727.444 407.168 726.177C431.34 724.91 453.863 692.211 474.739 628.081C495.617 563.952 505.785 295.516 529.955 294.249C554.127 292.982 582.827 378.152 609.884 431.891C636.935 485.63 668.106 617.947 692.281 616.68C716.448 615.413 734.854 504.137 757.381 471.438C779.901 438.739 803.249 421.757 827.423 420.49C851.59 419.223 880.706 512.251 904.877 510.984C929.045 509.718 951.984 484.877 974.919 460.037" stroke="#0088FE" stroke-width="5.90133"/>
<path d="M257.196 639.48C280.955 630.355 304.715 621.233 327.238 588.533C349.761 555.834 363.226 350.263 387.397 348.996C411.569 347.729 448.094 582.199 472.264 580.933C520.607 578.399 559.064 387.276 607.409 384.742C631.577 383.476 655.748 382.209 679.922 380.942C704.09 379.676 728.261 378.409 752.435 377.142C776.603 375.875 815.599 657.492 839.773 656.225C863.941 654.958 884.409 582.971 907.344 558.131C930.276 533.291 953.833 520.237 977.386 507.183" stroke="#FF8042" stroke-width="5.90133"/>
</g>
</g>
<path d="M242.378 807.153L238.766 807.342L238.682 805.734L244.001 805.455L244.93 823.17L243.222 823.259L242.378 807.153ZM249.756 811.132L253.872 804.938L255.951 804.829L251.622 811.233C252.441 810.768 253.199 810.555 254.016 810.512C257.702 810.319 260.293 812.887 260.474 816.351C260.665 819.988 258.057 822.779 254.519 822.965C250.957 823.151 248.017 820.552 247.832 817.014C247.724 814.96 248.218 813.495 249.756 811.132ZM249.639 816.944C249.78 819.641 251.738 821.498 254.435 821.357C257.058 821.219 258.836 819.166 258.694 816.469C258.553 813.773 256.571 811.941 253.949 812.079C251.252 812.22 249.498 814.247 249.639 816.944ZM263.597 822.191L261.915 822.279L267.889 804.203L269.621 804.112L263.597 822.191ZM271.074 812.918C270.786 807.425 273.289 803.573 277.693 803.342C282.072 803.113 284.963 806.682 285.251 812.175C285.54 817.692 283.085 821.492 278.656 821.725C274.203 821.958 271.363 818.435 271.074 812.918ZM272.831 812.826C273.072 817.428 275.182 820.294 278.572 820.116C281.961 819.939 283.76 816.867 283.519 812.266C283.276 807.639 281.168 804.797 277.778 804.975C274.389 805.153 272.588 808.199 272.831 812.826ZM299.857 820.291L288.18 820.903L288.106 819.493L293.512 814.248C296.629 811.231 297.405 809.95 297.295 807.847C297.169 805.447 295.658 804.063 293.307 804.186C290.858 804.314 289.343 806.18 289.413 808.93L287.631 809.023C287.536 805.307 289.758 802.735 293.246 802.552C296.586 802.377 298.926 804.413 299.096 807.654C299.231 810.227 298.157 811.995 294.781 815.273L290.839 819.101L299.77 818.633L299.857 820.291Z" fill="#999999"/>
<path d="M381.695 799.87L378.083 800.059L377.999 798.451L383.318 798.172L384.246 815.887L382.539 815.976L381.695 799.87ZM387.285 810.89C387.171 808.712 388.391 806.912 390.457 806.084C388.638 805.46 387.547 804.053 387.451 802.223C387.308 799.501 389.537 797.524 392.926 797.346C396.291 797.17 398.64 798.907 398.783 801.654C398.881 803.509 397.968 805.021 396.246 805.781C398.333 806.316 399.787 808.026 399.904 810.253C400.062 813.271 397.623 815.483 393.862 815.68C390.102 815.877 387.444 813.933 387.285 810.89ZM389.136 802.184C389.238 804.139 390.89 805.367 393.315 805.24C395.715 805.114 397.207 803.77 397.105 801.816C397.005 799.911 395.384 798.805 392.984 798.931C390.56 799.058 389.039 800.328 389.136 802.184ZM389.034 810.649C389.149 812.851 391.056 814.215 393.803 814.071C396.499 813.93 398.254 812.374 398.138 810.172C398.024 807.995 396.169 806.678 393.373 806.824C390.627 806.968 388.92 808.472 389.034 810.649ZM402.624 814.923L400.942 815.012L406.916 796.935L408.648 796.845L402.624 814.923ZM410.101 805.65C409.813 800.158 412.316 796.305 416.719 796.074C421.099 795.845 423.99 799.415 424.278 804.907C424.567 810.424 422.111 814.225 417.683 814.457C413.23 814.69 410.39 811.167 410.101 805.65ZM411.858 805.558C412.099 810.16 414.209 813.026 417.599 812.849C420.988 812.671 422.787 809.6 422.546 804.998C422.303 800.371 420.195 797.53 416.805 797.707C413.416 797.885 411.615 800.931 411.858 805.558ZM438.884 813.023L427.206 813.635L427.133 812.225L432.539 806.98C435.656 803.963 436.432 802.682 436.322 800.579C436.196 798.18 434.684 796.795 432.334 796.918C429.885 797.047 428.37 798.912 428.44 801.662L426.658 801.756C426.563 798.039 428.785 795.467 432.273 795.284C435.613 795.109 437.953 797.145 438.123 800.386C438.257 802.959 437.184 804.727 433.808 808.005L429.866 811.834L438.797 811.365L438.884 813.023Z" fill="#999999"/>
<path d="M520.873 792.56L517.261 792.75L517.176 791.141L522.496 790.863L523.424 808.577L521.717 808.666L520.873 792.56ZM526.463 803.58C526.348 801.403 527.569 799.602 529.634 798.775C527.815 798.15 526.725 796.744 526.629 794.913C526.486 792.192 528.714 790.214 532.104 790.037C535.469 789.86 537.817 791.598 537.961 794.344C538.058 796.2 537.145 797.711 535.424 798.471C537.511 799.007 538.965 800.717 539.082 802.944C539.24 805.962 536.801 808.174 533.04 808.371C529.279 808.568 526.622 806.623 526.463 803.58ZM528.314 794.874C528.416 796.829 530.068 798.057 532.493 797.93C534.893 797.804 536.385 796.461 536.283 794.506C536.183 792.601 534.562 791.495 532.162 791.621C529.737 791.748 528.216 793.019 528.314 794.874ZM528.211 803.34C528.327 805.541 530.234 806.905 532.98 806.761C535.677 806.62 537.431 805.064 537.316 802.862C537.202 800.685 535.347 799.368 532.551 799.515C529.805 799.659 528.097 801.162 528.211 803.34ZM541.802 807.614L540.119 807.702L546.094 789.626L547.826 789.535L541.802 807.614ZM549.279 798.34C548.991 792.848 551.493 788.996 555.897 788.765C560.276 788.535 563.168 792.105 563.455 797.598C563.745 803.115 561.289 806.915 556.861 807.147C552.407 807.381 549.568 803.858 549.279 798.34ZM551.036 798.248C551.277 802.85 553.387 805.717 556.776 805.539C560.166 805.361 561.965 802.29 561.724 797.688C561.481 793.062 559.372 790.22 555.983 790.398C552.593 790.575 550.793 793.622 551.036 798.248ZM578.062 805.714L566.384 806.326L566.31 804.915L571.717 799.67C574.833 796.654 575.61 795.373 575.499 793.27C575.374 790.87 573.862 789.485 571.512 789.609C569.062 789.737 567.548 791.603 567.617 794.353L565.836 794.446C565.741 790.73 567.963 788.157 571.451 787.974C574.791 787.799 577.13 789.835 577.3 793.076C577.435 795.649 576.362 797.417 572.986 800.695L569.044 804.524L577.975 804.056L578.062 805.714Z" fill="#999999"/>
<path d="M655.398 785.517L651.786 785.707L651.702 784.098L657.021 783.82L657.95 801.534L656.242 801.623L655.398 785.517ZM660.988 796.537C660.874 794.36 662.094 792.559 664.16 791.732C662.341 791.107 661.25 789.701 661.154 787.87C661.011 785.149 663.24 783.171 666.629 782.994C669.994 782.817 672.343 784.555 672.487 787.301C672.584 789.157 671.671 790.668 669.949 791.428C672.036 791.964 673.49 793.674 673.607 795.901C673.765 798.919 671.326 801.131 667.565 801.328C663.805 801.525 661.147 799.58 660.988 796.537ZM662.839 787.831C662.941 789.786 664.594 791.014 667.018 790.887C669.418 790.761 670.911 789.418 670.808 787.463C670.708 785.558 669.087 784.453 666.687 784.578C664.263 784.705 662.742 785.976 662.839 787.831ZM662.737 796.297C662.852 798.499 664.76 799.862 667.506 799.718C670.202 799.577 671.957 798.021 671.841 795.819C671.727 793.642 669.872 792.325 667.076 792.472C664.33 792.616 662.623 794.119 662.737 796.297ZM676.327 800.571L674.645 800.659L680.619 782.583L682.351 782.492L676.327 800.571ZM683.804 791.298C683.516 785.805 686.019 781.953 690.423 781.722C694.802 781.492 697.693 785.062 697.981 790.555C698.27 796.072 695.815 799.872 691.386 800.104C686.933 800.338 684.093 796.815 683.804 791.298ZM685.561 791.205C685.802 795.807 687.912 798.674 691.302 798.496C694.691 798.318 696.49 795.247 696.249 790.645C696.006 786.019 693.898 783.177 690.508 783.355C687.119 783.532 685.318 786.579 685.561 791.205ZM712.587 798.671L700.91 799.283L700.836 797.872L706.242 792.627C709.359 789.611 710.135 788.33 710.025 786.227C709.899 783.827 708.388 782.442 706.037 782.566C703.588 782.694 702.073 784.56 702.143 787.31L700.361 787.403C700.266 783.687 702.488 781.114 705.976 780.931C709.316 780.756 711.656 782.792 711.826 786.033C711.961 788.606 710.887 790.374 707.511 793.652L703.569 797.481L712.5 797.013L712.587 798.671Z" fill="#999999"/>
<path d="M802.332 793.983L790.654 794.595L790.58 793.185L795.987 787.94C799.103 784.923 799.88 783.642 799.769 781.539C799.644 779.139 798.132 777.755 795.782 777.878C793.333 778.006 791.818 779.872 791.887 782.622L790.106 782.716C790.011 778.999 792.233 776.427 795.721 776.244C799.061 776.069 801.401 778.105 801.57 781.346C801.705 783.919 800.632 785.687 797.256 788.965L793.314 792.793L802.245 792.325L802.332 793.983ZM816.638 789.462L814.56 789.571L814.757 793.332L813.025 793.423L812.828 789.662L803.525 790.15L803.442 788.566L811.453 775.742L813.828 775.617L814.477 787.988L816.555 787.879L816.638 789.462ZM805.372 788.465L812.745 788.079L812.193 777.539L805.372 788.465ZM819.926 793.061L818.244 793.149L824.218 775.073L825.95 774.982L819.926 793.061ZM827.404 783.788C827.116 778.295 829.618 774.443 834.022 774.212C838.401 773.982 841.292 777.552 841.58 783.045C841.869 788.562 839.414 792.362 834.985 792.594C830.532 792.828 827.693 789.305 827.404 783.788ZM829.16 783.695C829.401 788.297 831.512 791.164 834.901 790.986C838.291 790.808 840.089 787.737 839.848 783.135C839.606 778.509 837.497 775.667 834.108 775.845C830.718 776.022 828.918 779.069 829.16 783.695ZM856.187 791.161L844.509 791.773L844.435 790.362L849.841 785.117C852.958 782.101 853.734 780.82 853.624 778.717C853.498 776.317 851.987 774.932 849.637 775.056C847.187 775.184 845.672 777.05 845.742 779.8L843.961 779.893C843.865 776.177 846.087 773.604 849.576 773.421C852.916 773.246 855.255 775.282 855.425 778.523C855.56 781.096 854.487 782.864 851.111 786.142L847.168 789.971L856.1 789.503L856.187 791.161Z" fill="#999999"/>
<path d="M901.774 779.872C901.486 774.38 903.989 770.527 908.393 770.297C912.772 770.067 915.663 773.637 915.951 779.129C916.24 784.646 913.785 788.447 909.356 788.679C904.903 788.912 902.063 785.389 901.774 779.872ZM903.531 779.78C903.772 784.382 905.882 787.248 909.272 787.071C912.661 786.893 914.46 783.822 914.219 779.22C913.976 774.594 911.868 771.752 908.478 771.929C905.089 772.107 903.288 775.154 903.531 779.78ZM929.006 781.323L924.892 787.542L922.813 787.651L927.14 781.222C926.347 781.71 925.588 781.899 924.747 781.943C921.061 782.136 918.47 779.568 918.288 776.104C918.099 772.492 920.705 769.676 924.243 769.491C927.806 769.304 930.746 771.904 930.932 775.466C931.04 777.52 930.571 778.983 929.006 781.323ZM929.15 775.535C929.008 772.838 927.026 770.982 924.329 771.124C921.706 771.261 919.928 773.314 920.07 776.011C920.21 778.683 922.191 780.514 924.814 780.377C927.51 780.235 929.29 778.207 929.15 775.535ZM934.356 787.046L932.673 787.134L938.648 769.058L940.38 768.967L934.356 787.046ZM941.833 777.773C941.545 772.28 944.047 768.428 948.451 768.197C952.83 767.968 955.722 771.537 956.01 777.03C956.299 782.547 953.843 786.347 949.415 786.58C944.961 786.813 942.122 783.29 941.833 777.773ZM943.59 777.681C943.831 782.283 945.941 785.149 949.33 784.971C952.72 784.794 954.519 781.722 954.278 777.121C954.035 772.494 951.926 769.652 948.537 769.83C945.147 770.008 943.347 773.054 943.59 777.681ZM963.393 775.998L961.983 776.072L961.918 774.835L967.103 769.155L958.617 769.599L958.534 768.016L969.272 767.453L969.347 768.888L964.329 774.436C967.653 774.435 970.138 776.413 970.307 779.63C970.491 783.143 968.038 785.579 964.451 785.767C960.963 785.95 958.499 783.92 958.314 780.382L960.071 780.29C960.204 782.839 961.868 784.29 964.367 784.159C967.014 784.02 968.633 782.248 968.498 779.675C968.371 777.25 966.56 775.832 963.393 775.998Z" fill="#999999"/>
<path d="M224.288 778.405C223.946 771.883 226.917 767.308 232.147 767.034C237.347 766.762 240.78 771.001 241.122 777.523C241.466 784.075 238.55 788.588 233.291 788.863C228.002 789.14 224.631 784.957 224.288 778.405ZM226.374 778.296C226.66 783.761 229.166 787.165 233.191 786.954C237.216 786.743 239.352 783.095 239.066 777.631C238.778 772.137 236.273 768.762 232.248 768.973C228.223 769.184 226.086 772.802 226.374 778.296Z" fill="#999999"/>
<path d="M226.288 641.091L224.614 641.178L224.537 639.709L230.694 632.964L220.617 633.493L220.518 631.612L233.269 630.944L233.358 632.648L227.399 639.235C231.347 639.235 234.298 641.584 234.498 645.404C234.717 649.575 231.805 652.468 227.545 652.691C223.402 652.908 220.477 650.499 220.257 646.297L222.343 646.188C222.501 649.214 224.477 650.937 227.444 650.782C230.588 650.617 232.511 648.513 232.35 645.457C232.2 642.578 230.049 640.894 226.288 641.091Z" fill="#999999"/>
<path d="M214.41 499.481L219.298 492.125L221.766 491.996L216.626 499.601C217.599 499.049 218.499 498.796 219.468 498.745C223.846 498.516 226.922 501.565 227.138 505.679C227.364 509.997 224.268 513.312 220.067 513.532C215.836 513.754 212.345 510.667 212.125 506.465C211.997 504.027 212.584 502.287 214.41 499.481ZM214.271 506.382C214.439 509.585 216.764 511.79 219.967 511.622C223.081 511.459 225.192 509.021 225.024 505.819C224.856 502.616 222.503 500.442 219.389 500.605C216.187 500.773 214.103 503.18 214.271 506.382Z" fill="#999999"/>
<path d="M193.725 312.414L189.436 312.639L189.336 310.729L195.652 310.398L196.755 331.434L194.728 331.54L193.725 312.414ZM200.287 320.702C199.945 314.18 202.917 309.605 208.146 309.331C213.346 309.058 216.78 313.297 217.122 319.82C217.465 326.371 214.549 330.884 209.29 331.16C204.002 331.437 200.63 327.254 200.287 320.702ZM202.373 320.593C202.659 326.057 205.165 329.461 209.19 329.25C213.215 329.039 215.351 325.392 215.065 319.927C214.777 314.433 212.273 311.059 208.248 311.27C204.223 311.481 202.085 315.099 202.373 320.593Z" fill="#999999"/>
</g>
<mask id="path-32-inside-1_32033_911" fill="white">
<path d="M86.7982 139.747C85.0079 105.588 111.249 76.4442 145.409 74.654L977.297 31.0565C1011.46 29.2663 1040.6 55.5071 1042.39 89.667L1082.59 856.646C1084.38 890.805 1058.14 919.949 1023.98 921.739L192.087 965.336C157.927 967.127 128.784 940.886 126.994 906.726L86.7982 139.747Z"/>
</mask>
<path d="M145.409 74.654L145.733 80.8392L977.621 37.2417L977.297 31.0565L976.973 24.8713L145.084 68.4688L145.409 74.654ZM1042.39 89.667L1036.21 89.9911L1076.4 856.97L1082.59 856.646L1088.77 856.321L1048.58 89.3428L1042.39 89.667ZM1023.98 921.739L1023.65 915.554L191.763 959.151L192.087 965.336L192.411 971.522L1024.3 927.924L1023.98 921.739ZM126.994 906.726L133.179 906.402L92.9834 139.423L86.7982 139.747L80.613 140.072L120.809 907.05L126.994 906.726ZM192.087 965.336L191.763 959.151C161.019 960.763 134.79 937.146 133.179 906.402L126.994 906.726L120.809 907.05C122.778 944.626 154.836 973.491 192.411 971.522L192.087 965.336ZM1082.59 856.646L1076.4 856.97C1078.01 887.714 1054.4 913.943 1023.65 915.554L1023.98 921.739L1024.3 927.924C1061.88 925.955 1090.74 893.897 1088.77 856.321L1082.59 856.646ZM977.297 31.0565L977.621 37.2417C1008.37 35.6305 1034.59 59.2472 1036.21 89.9911L1042.39 89.667L1048.58 89.3428C1046.61 51.767 1014.55 22.9021 976.973 24.8713L977.297 31.0565ZM145.409 74.654L145.084 68.4688C107.509 70.4381 78.6437 102.496 80.613 140.072L86.7982 139.747L92.9834 139.423C91.3721 108.679 114.989 82.4504 145.733 80.8392L145.409 74.654Z" fill="white" mask="url(#path-32-inside-1_32033_911)"/>
</g>
<defs>
<filter id="filter0_d_32033_911" x="-3.15496" y="-3.15495" width="1157.13" height="1095.6" filterUnits="userSpaceOnUse" color-interpolation-filters="sRGB">
<feFlood flood-opacity="0" result="BackgroundImageFix"/>
<feColorMatrix in="SourceAlpha" type="matrix" values="0 0 0 0 0 0 0 0 0 0 0 0 0 0 0 0 0 0 127 0" result="hardAlpha"/>
<feOffset dx="-9.29053" dy="46.4526"/>
<feGaussianBlur stdDeviation="38.7105"/>
<feComposite in2="hardAlpha" operator="out"/>
<feColorMatrix type="matrix" values="0 0 0 0 0.407843 0 0 0 0 0.388235 0 0 0 0 0.313726 0 0 0 0.15 0"/>
<feBlend mode="normal" in2="BackgroundImageFix" result="effect1_dropShadow_32033_911"/>
<feBlend mode="normal" in="SourceGraphic" in2="effect1_dropShadow_32033_911" result="shape"/>
</filter>
<clipPath id="bgblur_0_32033_911_clip_path" transform="translate(3.15496 3.15495)"><rect x="83.5566" y="77.8955" width="956.924" height="891.894" rx="61.9369" transform="rotate(-3 83.5566 77.8955)"/>
</clipPath><clipPath id="clip1_32033_911">
<rect width="101.004" height="101.002" fill="white" transform="translate(889.631 78.1104) rotate(-3)"/>
</clipPath>
<clipPath id="clip2_32033_911">
<rect width="101.004" height="101.002" fill="white" transform="translate(889.631 78.1104) rotate(-3)"/>
</clipPath>
<clipPath id="clip3_32033_911">
<rect width="778.901" height="619.38" fill="white" transform="translate(167.312 285.327) rotate(-3)"/>
</clipPath>
<clipPath id="clip4_32033_911">
<rect width="709.159" height="473.816" fill="white" transform="translate(236.801 309.604) rotate(-3)"/>
</clipPath>
<clipPath id="clip5_32033_911">
<rect width="709.159" height="473.816" fill="white" transform="translate(236.801 309.604) rotate(-3)"/>
</clipPath>
<clipPath id="clip6_32033_911">
<rect width="727.734" height="473.815" fill="white" transform="translate(239.904 309.45) rotate(-3)"/>
</clipPath>
<clipPath id="clip7_32033_911">
<rect width="727.734" height="473.815" fill="white" transform="translate(239.904 309.45) rotate(-3)"/>
</clipPath>
</defs>
</svg>
